<?xml version="1.0" encoding="utf-8"?>
<!-- Generator: Adobe Illustrator 19.0.0, SVG Export Plug-In . SVG Version: 6.00 Build 0)  -->
<svg version="1.1" id="Layer_1" xmlns="http://www.w3.org/2000/svg" xmlns:xlink="http://www.w3.org/1999/xlink" x="0px" y="0px"
	 width="1400px" height="980px" viewBox="0 0 1400 980" style="enable-background:new 0 0 1400 980;" xml:space="preserve">
<style type="text/css">
	.st0{clip-path:url(#XMLID_58_);}
	.st1{fill:#FFFCD9;}
	.st2{fill:#CECAAA;}
	.st3{fill:#3C95CD;}
	.st4{fill:#1E6E96;}
	.st5{fill:#267999;}
	.st6{fill:#BAACA2;}
	.st7{fill:#FFFFFF;}
	.st8{fill:#54261C;}
	.st9{fill:#726B5B;}
	.st10{fill:url(#XMLID_59_);}
	.st11{fill:url(#XMLID_60_);}
	.st12{fill:url(#XMLID_61_);}
	.st13{fill:url(#XMLID_62_);}
	.st14{fill:url(#XMLID_63_);}
	.st15{fill:url(#XMLID_64_);}
	.st16{fill:url(#XMLID_712_);}
	.st17{fill:url(#XMLID_714_);}
	.st18{fill:url(#XMLID_715_);}
	.st19{fill:url(#XMLID_716_);}
	.st20{fill:url(#XMLID_717_);}
	.st21{fill:url(#XMLID_718_);}
	.st22{fill:url(#XMLID_720_);}
	.st23{fill:url(#XMLID_721_);}
	.st24{fill:url(#XMLID_723_);}
	.st25{fill:#673A23;}
	.st26{fill:#404040;}
	.st27{fill:#E26498;}
	.st28{fill:#777777;}
	.st29{fill:#C6C6C6;}
	.st30{fill:#119ABA;}
	.st31{fill:#2FC5DD;}
	.st32{fill:#A8E5EF;}
	.st33{fill:#CAD5E0;}
	.st34{fill:#605D57;}
	.st35{fill:#7C7870;}
	.st36{fill:#6EA7E5;}
	.st37{fill:#94C5FD;}
	.st38{fill:#5590C6;}
	.st39{fill:#9EAAB5;}
	.st40{fill:#F7A484;}
	.st41{fill:#DD896F;}
	.st42{fill:#49170A;}
	.st43{fill:#0B6168;}
	.st44{fill:#D1E0E0;}
	.st45{fill:url(#XMLID_724_);}
	.st46{fill:#BA3A68;}
	.st47{fill:#AAAAAA;}
	.st48{fill:#F2EBD6;}
	.st49{fill:#D3C7A9;}
	.st50{fill:url(#XMLID_725_);}
	.st51{fill:url(#XMLID_726_);}
	.st52{fill:url(#XMLID_727_);}
	.st53{fill:url(#XMLID_728_);}
	.st54{fill:#00566D;}
	.st55{fill:#9B978F;}
	.st56{fill:#8E573F;}
	.st57{fill:#2D2D2D;}
	.st58{fill:url(#XMLID_729_);}
	.st59{fill:#D1A3BD;}
	.st60{fill:#EDCEDE;}
	.st61{fill:#588B93;}
	.st62{fill:#407277;}
	.st63{fill:#8C817A;}
	.st64{fill:#6D635D;}
	.st65{fill:#D35B8C;}
	.st66{fill:#C9AC9B;}
	.st67{fill:#C16808;}
	.st68{fill:#A5570A;}
	.st69{fill:#D33C3C;}
	.st70{fill:#E54545;}
	.st71{fill:url(#XMLID_730_);}
	.st72{fill:#EF8114;}
	.st73{fill:#F49484;}
	.st74{fill:url(#XMLID_731_);}
	.st75{fill:#AA9F99;}
	.st76{fill:#04897F;}
	.st77{fill:#006E68;}
	.st78{fill:#4B7DAA;}
	.st79{fill:#E58A76;}
	.st80{fill:url(#XMLID_732_);}
</style>
<g id="XMLID_552_">
	<defs>
		<rect id="XMLID_551_" width="1400" height="980"/>
	</defs>
	<clipPath id="XMLID_58_">
		<use xlink:href="#XMLID_551_"  style="overflow:visible;"/>
	</clipPath>
	<g id="XMLID_329_" class="st0">
		<rect id="XMLID_661_" class="st1" width="1400" height="980"/>
		<g id="XMLID_610_">
			<path id="XMLID_657_" class="st2" d="M1449.9,850.8c-16.1,16.2-42.5,16.1-64.5,10.2s-43-16.8-65.8-18.6
				c-43.9-3.5-85.5,26.7-129.2,22c-31-3.3-58.4-23.9-89.6-25.3c-40-1.8-77.8,28.5-117.2,21.1c-18.6-3.5-34.6-15.1-52.6-21.1
				c-18.1-6.1-37.7-2.3-56.9-2.3v-864h556.3L1449.9,850.8z"/>
			<path id="XMLID_652_" class="st3" d="M1474.7,845c-16.1,16.2-42.5,16.1-64.5,10.2c-22-6-43-16.8-65.8-18.6
				c-43.9-3.5-85.5,26.7-129.2,22c-31-3.3-58.4-23.9-89.6-25.3c-40-1.8-77.8,28.5-117.2,21.1c-18.6-3.5-34.6-15.1-52.6-21.1
				c-18.1-6.1-37.7-2.3-56.9-2.3V-33h556.3L1474.7,845z"/>
			<g id="XMLID_633_">
				<path id="XMLID_648_" class="st4" d="M964.2,410.9c0,239.6,7.4,433.9,7.4,433.9s7.4-194.2,7.4-433.9S971.6-23,971.6-23
					S964.2,171.2,964.2,410.9z"/>
				<path id="XMLID_644_" class="st4" d="M1287.8,410.9c0,239.6,7.4,433.9,7.4,433.9s7.4-194.2,7.4-433.9S1295.3-23,1295.3-23
					S1287.8,171.2,1287.8,410.9z"/>
				<path id="XMLID_638_" class="st4" d="M1097.5,403.7c0,235.6,7.4,426.7,7.4,426.7s7.4-191,7.4-426.7S1104.9-23,1104.9-23
					S1097.5,168,1097.5,403.7z"/>
				<path id="XMLID_634_" class="st4" d="M1121.4,299.9c0,178.3,7.4,322.9,7.4,322.9s7.4-144.6,7.4-322.9S1128.9-23,1128.9-23
					S1121.4,121.6,1121.4,299.9z"/>
			</g>
			<g id="XMLID_612_">
				<path id="XMLID_624_" class="st4" d="M1328.9,410.9c0,239.6,3.4,433.9,3.4,433.9s3.4-194.2,3.4-433.9S1332.3-23,1332.3-23
					S1328.9,171.2,1328.9,410.9z"/>
				<path id="XMLID_616_" class="st4" d="M1367,403.7c0,235.6,3.4,426.7,3.4,426.7s3.4-191,3.4-426.7S1370.3-23,1370.3-23
					S1367,168,1367,403.7z"/>
				<path id="XMLID_613_" class="st4" d="M1377.8,299.9c0,178.3,3.4,322.9,3.4,322.9s3.4-144.6,3.4-322.9S1381.2-23,1381.2-23
					S1377.8,121.6,1377.8,299.9z"/>
			</g>
		</g>
		<rect id="XMLID_606_" y="879.3" class="st3" width="1400" height="100.7"/>
		<path id="XMLID_47_" class="st5" d="M597,934.8c0,0-77.9,14.4-174.1,14.4s-174.1-14.4-174.1-14.4s77.9-14.4,174.1-14.4
			S597,934.8,597,934.8z"/>
		<path id="XMLID_548_" class="st5" d="M1270.1,941.6c0,0-130.2,14.4-290.8,14.4s-290.8-14.4-290.8-14.4s130.2-14.4,290.8-14.4
			S1270.1,941.6,1270.1,941.6z"/>
		<g id="XMLID_557_">
			<path id="XMLID_602_" class="st6" d="M365.3,138.3c0,9.6-7.8,17.4-17.4,17.4h-93.2c-9.6,0-17.4-7.8-17.4-17.4V45.1
				c0-9.6,7.8-17.4,17.4-17.4H348c9.6,0,17.4,7.8,17.4,17.4V138.3z"/>
			<path id="XMLID_592_" class="st7" d="M354.5,130.1c0,8-6.5,14.4-14.4,14.4h-77.4c-8,0-14.4-6.5-14.4-14.4V52.7
				c0-8,6.5-14.4,14.4-14.4h77.4c8,0,14.4,6.5,14.4,14.4V130.1z"/>
			<rect id="XMLID_579_" x="299.7" y="42.5" class="st6" width="3.4" height="13.7"/>
			<rect id="XMLID_576_" x="299.7" y="124.9" class="st6" width="3.4" height="13.7"/>
			<rect id="XMLID_573_" x="253.3" y="90" class="st6" width="13.7" height="3.4"/>
			<rect id="XMLID_570_" x="335.7" y="90" class="st6" width="13.7" height="3.4"/>
			<g id="XMLID_559_">
				<polygon id="XMLID_568_" class="st8" points="313,71.8 298.9,91.9 302.8,94.1 				"/>
				<polygon id="XMLID_566_" class="st8" points="301.4,58.9 299.7,91.7 303.1,91.7 				"/>
				<circle id="XMLID_561_" class="st8" cx="301.4" cy="91.7" r="2.8"/>
			</g>
		</g>
		<g id="XMLID_600_">
			<rect id="XMLID_547_" class="st9" width="141" height="366.7"/>
			<g id="XMLID_49_">
				<g id="XMLID_483_">
					<rect id="XMLID_544_" class="st9" width="135.1" height="22.6"/>
					<linearGradient id="XMLID_59_" gradientUnits="userSpaceOnUse" x1="67.5604" y1="20.5569" x2="67.5604" y2="43.1487">
						<stop  offset="0" style="stop-color:#FFFFFF"/>
						<stop  offset="1" style="stop-color:#D1D3D4"/>
					</linearGradient>
					<rect id="XMLID_540_" y="20.6" class="st10" width="135.1" height="22.6"/>
					<linearGradient id="XMLID_60_" gradientUnits="userSpaceOnUse" x1="67.5604" y1="42.8897" x2="67.5604" y2="65.4815">
						<stop  offset="0" style="stop-color:#FFFFFF"/>
						<stop  offset="1" style="stop-color:#D1D3D4"/>
					</linearGradient>
					<rect id="XMLID_536_" y="42.9" class="st11" width="135.1" height="22.6"/>
					<linearGradient id="XMLID_61_" gradientUnits="userSpaceOnUse" x1="67.5604" y1="65.2224" x2="67.5604" y2="87.8142">
						<stop  offset="0" style="stop-color:#FFFFFF"/>
						<stop  offset="1" style="stop-color:#D1D3D4"/>
					</linearGradient>
					<rect id="XMLID_532_" y="65.2" class="st12" width="135.1" height="22.6"/>
					<linearGradient id="XMLID_62_" gradientUnits="userSpaceOnUse" x1="67.5604" y1="87.5551" x2="67.5604" y2="110.147">
						<stop  offset="0" style="stop-color:#FFFFFF"/>
						<stop  offset="1" style="stop-color:#D1D3D4"/>
					</linearGradient>
					<rect id="XMLID_528_" y="87.6" class="st13" width="135.1" height="22.6"/>
					<linearGradient id="XMLID_63_" gradientUnits="userSpaceOnUse" x1="67.5604" y1="109.8879" x2="67.5604" y2="132.4797">
						<stop  offset="0" style="stop-color:#FFFFFF"/>
						<stop  offset="1" style="stop-color:#D1D3D4"/>
					</linearGradient>
					<rect id="XMLID_524_" y="109.9" class="st14" width="135.1" height="22.6"/>
					<linearGradient id="XMLID_64_" gradientUnits="userSpaceOnUse" x1="67.5604" y1="132.2206" x2="67.5604" y2="154.8124">
						<stop  offset="0" style="stop-color:#FFFFFF"/>
						<stop  offset="1" style="stop-color:#D1D3D4"/>
					</linearGradient>
					<rect id="XMLID_519_" y="132.2" class="st15" width="135.1" height="22.6"/>
					<linearGradient id="XMLID_712_" gradientUnits="userSpaceOnUse" x1="67.5604" y1="154.5534" x2="67.5604" y2="177.1452">
						<stop  offset="0" style="stop-color:#FFFFFF"/>
						<stop  offset="1" style="stop-color:#D1D3D4"/>
					</linearGradient>
					<rect id="XMLID_515_" y="154.6" class="st16" width="135.1" height="22.6"/>
					<linearGradient id="XMLID_714_" gradientUnits="userSpaceOnUse" x1="67.5604" y1="176.8861" x2="67.5604" y2="199.4779">
						<stop  offset="0" style="stop-color:#FFFFFF"/>
						<stop  offset="1" style="stop-color:#D1D3D4"/>
					</linearGradient>
					<rect id="XMLID_510_" y="176.9" class="st17" width="135.1" height="22.6"/>
					<linearGradient id="XMLID_715_" gradientUnits="userSpaceOnUse" x1="67.5604" y1="199.2188" x2="67.5604" y2="221.8107">
						<stop  offset="0" style="stop-color:#FFFFFF"/>
						<stop  offset="1" style="stop-color:#D1D3D4"/>
					</linearGradient>
					<rect id="XMLID_506_" y="199.2" class="st18" width="135.1" height="22.6"/>
					<linearGradient id="XMLID_716_" gradientUnits="userSpaceOnUse" x1="67.5604" y1="221.5516" x2="67.5604" y2="244.1434">
						<stop  offset="0" style="stop-color:#FFFFFF"/>
						<stop  offset="1" style="stop-color:#D1D3D4"/>
					</linearGradient>
					<rect id="XMLID_523_" y="221.6" class="st19" width="135.1" height="22.6"/>
					<linearGradient id="XMLID_717_" gradientUnits="userSpaceOnUse" x1="67.5604" y1="243.8843" x2="67.5604" y2="266.4761">
						<stop  offset="0" style="stop-color:#FFFFFF"/>
						<stop  offset="1" style="stop-color:#D1D3D4"/>
					</linearGradient>
					<rect id="XMLID_499_" y="243.9" class="st20" width="135.1" height="22.6"/>
					<linearGradient id="XMLID_718_" gradientUnits="userSpaceOnUse" x1="67.5604" y1="266.2171" x2="67.5604" y2="288.8089">
						<stop  offset="0" style="stop-color:#FFFFFF"/>
						<stop  offset="1" style="stop-color:#D1D3D4"/>
					</linearGradient>
					<rect id="XMLID_495_" y="266.2" class="st21" width="135.1" height="22.6"/>
					<linearGradient id="XMLID_720_" gradientUnits="userSpaceOnUse" x1="67.5604" y1="288.5498" x2="67.5604" y2="311.1416">
						<stop  offset="0" style="stop-color:#FFFFFF"/>
						<stop  offset="1" style="stop-color:#D1D3D4"/>
					</linearGradient>
					<rect id="XMLID_491_" y="288.5" class="st22" width="135.1" height="22.6"/>
					<linearGradient id="XMLID_721_" gradientUnits="userSpaceOnUse" x1="67.5604" y1="310.8825" x2="67.5604" y2="333.4744">
						<stop  offset="0" style="stop-color:#FFFFFF"/>
						<stop  offset="1" style="stop-color:#D1D3D4"/>
					</linearGradient>
					<rect id="XMLID_556_" y="310.9" class="st23" width="135.1" height="22.6"/>
					<linearGradient id="XMLID_723_" gradientUnits="userSpaceOnUse" x1="67.5604" y1="333.2153" x2="67.5604" y2="355.8071">
						<stop  offset="0" style="stop-color:#FFFFFF"/>
						<stop  offset="1" style="stop-color:#D1D3D4"/>
					</linearGradient>
					<rect id="XMLID_484_" y="333.2" class="st24" width="135.1" height="22.6"/>
				</g>
				<g id="XMLID_50_">
					<g id="XMLID_481_">
						<rect id="XMLID_599_" y="41.7" class="st9" width="135.1" height="2.5"/>
					</g>
					<g id="XMLID_479_">
						<rect id="XMLID_480_" y="64" class="st9" width="135.1" height="2.5"/>
					</g>
					<g id="XMLID_478_">
						<rect id="XMLID_596_" y="86.3" class="st9" width="135.1" height="2.5"/>
					</g>
					<g id="XMLID_580_">
						<rect id="XMLID_476_" y="108.7" class="st9" width="135.1" height="2.5"/>
					</g>
					<g id="XMLID_585_">
						<rect id="XMLID_593_" y="131" class="st9" width="135.1" height="2.5"/>
					</g>
					<g id="XMLID_588_">
						<rect id="XMLID_590_" y="153.3" class="st9" width="135.1" height="2.5"/>
					</g>
					<g id="XMLID_591_">
						<rect id="XMLID_589_" y="175.7" class="st9" width="135.1" height="2.5"/>
					</g>
					<g id="XMLID_595_">
						<rect id="XMLID_475_" y="198" class="st9" width="135.1" height="2.5"/>
					</g>
					<g id="XMLID_598_">
						<rect id="XMLID_471_" y="220.3" class="st9" width="135.1" height="2.5"/>
					</g>
					<g id="XMLID_601_">
						<rect id="XMLID_56_" y="242.7" class="st9" width="135.1" height="2.5"/>
					</g>
					<g id="XMLID_604_">
						<rect id="XMLID_583_" y="265" class="st9" width="135.1" height="2.5"/>
					</g>
					<g id="XMLID_620_">
						<rect id="XMLID_582_" y="287.3" class="st9" width="135.1" height="2.5"/>
					</g>
					<g id="XMLID_55_">
						<rect id="XMLID_581_" y="309.6" class="st9" width="135.1" height="2.5"/>
					</g>
					<g id="XMLID_53_">
						<rect id="XMLID_54_" y="332" class="st9" width="135.1" height="2.5"/>
					</g>
					<g id="XMLID_51_">
						<rect id="XMLID_52_" y="354.3" class="st9" width="135.1" height="2.5"/>
					</g>
				</g>
			</g>
		</g>
		<g id="XMLID_48_">
			<g id="XMLID_845_">
				<path id="XMLID_30_" class="st25" d="M213,413.5c5.2-3.1,10.4-6.3,15.6-9.4c-7.6,5.8-11.7,15.3-12.8,24.8s0.5,19.1,2.6,28.5
					c2.5,11.6,6,23.7,14.9,31.5c19.8-13.9,39.4-28.9,53.2-48.7c13.8-19.8,21.2-45.5,14.3-68.7c-1.4-4.6-3.4-9.1-6.6-12.6
					c-12.2-13.2-28.6-3.2-37.8,7.4C242.4,382.4,228,398.2,213,413.5z"/>
				<g id="XMLID_688_">
					<path id="XMLID_39_" class="st26" d="M408.3,902.6c0,0-47.5-22.1-67,5.6C341.3,908.2,373.7,899.9,408.3,902.6z"/>
					<path id="XMLID_41_" class="st26" d="M408.3,902.6c0,0-46.1,0.9-33.5,30.4C374.8,933,377.8,917.6,408.3,902.6z"/>
					<path id="XMLID_42_" class="st26" d="M408.3,902.6c0,0,83.6-29.2,103.7,10.3C512,912.9,506,905.2,408.3,902.6z"/>
					<path id="XMLID_35_" class="st26" d="M355.1,912.3c2,9.4-4.1,17-13.8,17c-9.6,0-19.1-7.6-21.1-17c-2-9.4,4.1-17,13.8-17
						C343.6,895.3,353.1,902.9,355.1,912.3z"/>
					<path id="XMLID_45_" class="st26" d="M494.6,912.9c-2,9.4,4.1,17,13.8,17c9.6,0,19.1-7.6,21.1-17c2-9.4-4.1-17-13.8-17
						C506,895.9,496.6,903.5,494.6,912.9z"/>
					<path id="XMLID_44_" class="st26" d="M394.4,941.6c0.9,9-6.3,16.3-15.9,16.3c-9.6,0-18.1-7.3-19-16.3
						c-0.9-9,6.3-16.3,15.9-16.3C385,925.3,393.5,932.6,394.4,941.6z"/>
				</g>
				<path id="XMLID_40_" class="st26" d="M442,753.7h-30.7l-3,148.9C430.6,871.6,447.7,799.7,442,753.7z"/>
				<path id="XMLID_29_" class="st27" d="M284.5,403.4c0.9-0.2,2-0.6,2.4-1.4c0.4-1-0.1-2.1-0.7-3.1c-7.4-12.5-9.6-28.1-16.9-40.2
					c-4.7-7.7-12.3-10.1-16.1-0.9C246.2,374.9,264.9,407.5,284.5,403.4z"/>
				<path id="XMLID_36_" class="st26" d="M443.4,731.2c17.9-36.1,22.1-77.5,11.6-116.3h4.9c10.5,38.9,6.3,80.2-11.6,116.3H443.4z"/>
				<path id="XMLID_38_" class="st26" d="M383.9,770c66.7-0.8,109-9.4,130.7-15.4c10.4-2.9,17.5-12.3,17.5-23.1v0l-104.9-8.6
					L383.9,770z"/>
				<path id="XMLID_787_" class="st28" d="M488.4,727.9l-23-1.9v38.4c8.5-1.2,16.2-2.5,23-3.8V727.9z"/>
				<path id="XMLID_770_" class="st28" d="M493.7,728.3v31.2c1-0.2,2-0.4,3-0.6v-30.4L493.7,728.3z"/>
				<path id="XMLID_37_" class="st28" d="M455,614.8h-21.4c10.5,38.9,6.3,80.2-11.6,116.3h21.4C461.3,695,465.5,653.7,455,614.8z"/>
				<path id="XMLID_722_" class="st29" d="M456,696.6c0,0,0.2-1.1,0.5-3c0.2-1,0.4-2.1,0.6-3.5c0.2-1.3,0.4-2.9,0.7-4.5
					c0.2-1.7,0.5-3.5,0.7-5.4c0.2-1.9,0.4-3.9,0.6-6c0.2-2.1,0.3-4.2,0.4-6.4c0.2-2.2,0.2-4.4,0.3-6.6c0-2.2,0.1-4.5,0-6.6
					c0-2.2-0.1-4.4-0.2-6.4c-0.1-2.1-0.2-4.1-0.4-6c-0.1-1.9-0.3-3.7-0.5-5.4c-0.2-1.7-0.3-3.2-0.5-4.6c-0.1-1.4-0.3-2.5-0.4-3.5
					c-0.3-1.9-0.4-3.1-0.4-3.1s0.3,1.1,0.7,3c0.2,1,0.5,2.1,0.7,3.5c0.1,0.7,0.3,1.4,0.4,2.1c0.1,0.8,0.3,1.6,0.4,2.4
					c0.1,0.8,0.3,1.7,0.4,2.6c0.1,0.9,0.2,1.8,0.4,2.8c0.3,1.9,0.4,3.9,0.6,6.1c0.1,2.1,0.3,4.3,0.3,6.5c0.1,2.2,0,4.5,0,6.7
					c-0.1,2.2-0.2,4.5-0.3,6.7c-0.1,2.2-0.4,4.4-0.6,6.5c-0.3,2.1-0.5,4.1-0.9,6c-0.3,1.9-0.6,3.7-1,5.4c-0.2,0.8-0.3,1.6-0.5,2.4
					c-0.2,0.7-0.4,1.5-0.5,2.1c-0.3,1.3-0.6,2.5-0.9,3.4C456.3,695.5,456,696.6,456,696.6z"/>
				<path id="XMLID_34_" class="st30" d="M369.2,747c54.1,9.7,111.2,3.1,162.9-15.5c-35.3-28.6-82.6-41.8-127.5-35.7
					c-3.3,3.5-7.8,5.7-10.6,9.6c-3.3,4.6-6.2,9.4-9.1,14.3C379.6,728.3,374.4,738.2,369.2,747z"/>
				<path id="XMLID_869_" class="st31" d="M530.1,729.9c-21.5-16.9-47.3-28.2-74.2-33c-4.5,1-9.1,2.2-13.6,3.7
					C463.7,727,497.6,734.7,530.1,729.9z"/>
				<path id="XMLID_697_" class="st32" d="M369.2,747c0,0,2.6,0.3,7,1c1.1,0.1,2.4,0.4,3.7,0.5c1.4,0.1,2.8,0.3,4.4,0.5
					c1.6,0.2,3.2,0.3,5,0.5c1.8,0.1,3.6,0.3,5.5,0.4c1.9,0.1,3.9,0.3,6,0.4c2.1,0.1,4.2,0.2,6.5,0.2c1.1,0,2.2,0.1,3.4,0.1
					c1.1,0,2.3,0,3.5,0c2.3,0,4.7,0.1,7.1,0c4.8-0.1,9.8-0.2,14.9-0.5c5.1-0.2,10.2-0.8,15.3-1.2c5.1-0.6,10.3-1.1,15.3-1.9
					c5-0.7,9.9-1.6,14.7-2.4c2.4-0.4,4.7-1,7-1.4c1.1-0.2,2.3-0.5,3.4-0.7c1.1-0.2,2.2-0.5,3.3-0.8c2.2-0.5,4.3-1,6.3-1.5
					c2-0.5,4-1,5.8-1.5c1.9-0.5,3.7-1,5.4-1.4c1.7-0.5,3.3-1,4.8-1.4c1.5-0.4,2.9-0.8,4.2-1.2c1.3-0.4,2.5-0.8,3.6-1.1
					c4.3-1.4,6.8-2.1,6.8-2.1s-2.4,0.9-6.7,2.5c-1.1,0.4-2.2,0.8-3.5,1.3c-1.3,0.4-2.7,0.9-4.2,1.4c-1.5,0.5-3.1,1-4.8,1.6
					c-1.7,0.5-3.5,1-5.3,1.6c-1.9,0.5-3.8,1.1-5.8,1.7c-2,0.5-4.1,1.1-6.3,1.6c-1.1,0.3-2.2,0.6-3.3,0.8c-1.1,0.3-2.2,0.5-3.4,0.8
					c-2.3,0.5-4.6,1-7,1.5c-4.8,0.9-9.7,1.9-14.8,2.6c-5,0.8-10.2,1.4-15.3,2c-5.2,0.4-10.3,0.9-15.4,1.1c-5.1,0.3-10.1,0.3-15,0.4
					c-2.4,0-4.8-0.1-7.2-0.1c-1.2,0-2.3-0.1-3.5-0.1c-1.1,0-2.3-0.1-3.4-0.2c-2.2-0.1-4.4-0.3-6.5-0.4c-2.1-0.1-4.1-0.4-6-0.6
					c-1.9-0.2-3.8-0.4-5.5-0.6c-1.8-0.2-3.4-0.5-5-0.7c-1.6-0.2-3-0.4-4.4-0.6c-1.3-0.2-2.6-0.5-3.7-0.6
					C371.7,747.4,369.2,747,369.2,747z"/>
				<path id="XMLID_33_" class="st30" d="M495.6,504.3c0,0-55-5.7-94.9,8.6s-28.8,69.9-28.8,69.9l16.7,30.7c0,0,30.1,12.7,89.7,12
					L495.6,504.3z"/>
				<path id="XMLID_736_" class="st28" d="M495.6,504.3c0,0-1.8-0.2-5-0.4c-27.8,33.2-26.8,80.8-14.9,121.6c0.9,0,1.7,0,2.6,0
					L495.6,504.3z"/>
				<path id="XMLID_26_" class="st29" d="M490.7,503.9c0,0-0.3,0.4-0.9,1.1c-0.5,0.8-1.4,1.8-2.4,3.3c-0.5,0.7-1.1,1.5-1.6,2.4
					c-0.6,0.9-1.2,1.8-1.8,2.9c-0.6,1-1.2,2.2-1.9,3.3c-0.6,1.2-1.3,2.5-2,3.8c-1.3,2.7-2.6,5.6-3.8,8.8c-1.2,3.2-2.3,6.6-3.3,10.2
					c-1,3.6-1.7,7.3-2.4,11.2c-0.7,3.8-1.1,7.8-1.4,11.7c-0.6,7.9-0.5,15.8,0,23.3c0.3,3.7,0.6,7.3,1,10.7c0.4,3.4,0.9,6.6,1.4,9.5
					c0.5,2.9,1,5.6,1.5,8c0.5,2.4,1,4.4,1.4,6.1c0.8,3.4,1.3,5.3,1.3,5.3s-0.2-0.5-0.4-1.4c-0.3-0.9-0.7-2.2-1.2-3.9
					c-0.5-1.7-1.1-3.7-1.7-6.1c-0.3-1.2-0.6-2.4-0.9-3.8c-0.3-1.3-0.6-2.7-0.9-4.2c-0.3-1.5-0.6-3-0.9-4.6c-0.3-1.6-0.6-3.2-0.8-4.9
					c-0.5-3.4-0.9-7-1.3-10.7c-0.3-3.7-0.5-7.6-0.6-11.6c0-3.9,0.1-8,0.4-12c0.3-4,0.8-8,1.5-11.9c0.7-3.9,1.6-7.7,2.6-11.3
					c1-3.6,2.2-7.1,3.6-10.2c1.3-3.2,2.7-6.1,4.1-8.8c0.7-1.3,1.4-2.6,2.1-3.7c0.7-1.2,1.4-2.3,2.1-3.3c0.7-1,1.4-1.9,2-2.8
					c0.6-0.9,1.2-1.6,1.8-2.3c1-1.4,2-2.4,2.6-3.1C490.3,504.3,490.7,503.9,490.7,503.9z"/>
				<path id="XMLID_746_" class="st33" d="M431.4,667.4c-2-8-7.9-34.2-16.4-37.7c-5.2-2.1-10.9,2.9-15.7,9.4c-1-2.2-2.1-4.2-3.6-6.1
					c-3.5-4.5-8.3-7.6-13.6-9.8l-4.1,123.3c2.7-1.4,5.3-3.1,7.7-5c0,1,0,2.1,0,3.1c0,2,0.1,4.2,1.6,5.4c1.4,1.2,3.5,1,5.3,0.6
					c16.7-3.4,30.4-16.8,36.8-32.7C435.9,701.9,435.6,684,431.4,667.4z"/>
				<path id="XMLID_739_" class="st34" d="M369.9,619.5c-28.6-5.7-62.8,0.7-86.4,18.5c-20.8,15.7-0.1,63.2,6.8,83.1
					c4.5,13.1,11,27.2,23.9,32.3c7.2,2.9,15.2,2.4,22.9,1.9c14.1-1,28.9-2.5,41.1-8.9l4.1-123.3C378.3,621.5,374,620.3,369.9,619.5z
					"/>
				<path id="XMLID_20_" class="st35" d="M410.4,723.4c18,72.5,36.1,145,54.1,217.4c-38.2-47.8-76.5-96.2-107.2-149.1
					c-1.5-2.6-3-5.4-2.5-8.4c0.4-2.2,1.9-4.1,3.3-5.9C373.3,759.2,392.6,739.1,410.4,723.4z"/>
				<path id="XMLID_806_" class="st34" d="M410.4,723.4c-17.8,15.7-37.1,35.8-52.3,54.1c-1.5,1.8-3,3.6-3.3,5.9
					c-0.5,2.9,1,5.8,2.5,8.4c11.3,19.5,23.7,38.5,36.7,57c8.2-29.9,17.6-58.9,25.5-88.5C416.5,747.9,413.4,735.7,410.4,723.4z"/>
				<path id="XMLID_14_" class="st36" d="M255.7,638.3c-27.5-60.4-41.2-127.1-40.9-193.5c20.6-10.9,41.4-21.6,62.2-32
					c37.3,3.5,73.6,18.3,110.6,25.4c19.8,77.1,29.1,157.7,28.5,237.2c-36.1,4.8-74.9-5.4-103.7-27.8c-14.3,8.4-32,15.9-48.5,18.2
					c-0.4-4.3-1.8-8.4-4.2-12c-1.6-2.4-3.5-4.5-4.9-6.9C253.6,644.5,254.7,641,255.7,638.3z"/>
				
					<ellipse id="XMLID_841_" transform="matrix(0.9879 -0.1551 0.1551 0.9879 -81.2671 59.0696)" class="st37" cx="337.8" cy="550.2" rx="3.2" ry="5.5"/>
				<path id="XMLID_836_" class="st38" d="M280.8,471.7c10,37.6,22.1,74.6,36.1,110.8c11.4-3.9,24.4-9.5,34.4-16.2
					c-13.7,14.4-29.3,27-46.1,37.6C282.8,564.3,282.3,517.2,280.8,471.7z"/>
				
					<ellipse id="XMLID_837_" transform="matrix(0.9879 -0.1551 0.1551 0.9879 -73.594 57.3213)" class="st37" cx="330.5" cy="500.2" rx="3.2" ry="5.5"/>
				<path id="XMLID_834_" class="st38" d="M361.4,517.9c-0.4,16.1-3.5,28.9-16.6,41.6c-15,14.5-32.1,26.9-50.5,36.5
					c23-3.5,45.3-11.4,65.3-23.2c3.5,16.2,4.3,32.9,7.2,49.2c2.8,16.3,7.9,32.8,18.5,45.5c-2-22.9,0.3-46,0.4-69
					c0.1-24.1-2.4-48.1-4.9-72c-1.6-15.6-3.2-31.2-5.9-46.7c-0.7-4-9.5-40.4-15.6-36.5c-2.3,1.4,0.1,12.7,0.3,14.8
					c1.4,16.7,1.5,33.6,1.9,50.4C361.5,511.8,361.5,514.9,361.4,517.9z"/>
				<path id="XMLID_825_" class="st38" d="M323.7,486.9c8.6-6.1,18.2-10.9,28.4-14c-2.1-3.6-4.2-7.3-6.3-10.9
					c8-2.5,15.9-5.3,23.6-8.5c-20.2-1.6-41.1-4-58.5-14.4c-5.8-3.5-11.4-7.9-18.1-8.5c2.2,0.2-2.2,18.9-2.8,20.6
					c-1.8,5-6.7,10.6-3.9,16.1c2.7,5.1,11.2,8.1,16.1,10.6C309.1,481.2,316.3,484.3,323.7,486.9z"/>
				<g id="XMLID_709_">
					<path id="XMLID_711_" class="st33" d="M387.6,438.3c-11.8-2.3-23.5-5.3-35.2-8.5c10.3,32.9,16.3,67.1,17.8,101.5
						c0.6,14,0.5,28.1,1.1,42.1c1.6,35,7.9,69.8,18.8,103.1c8.7,0.5,17.4,0.2,26-0.9C416.7,595.9,407.4,515.3,387.6,438.3z"/>
					<path id="XMLID_719_" class="st33" d="M286.8,430.9c2.8-5.2,5.7-10.4,8.5-15.5c-6.1-1.1-12.2-2-18.3-2.6
						c-20.9,10.5-41.6,21.1-62.2,32c-0.3,66.3,13.4,133.1,40.9,193.5c-1,2.6-2.1,6.2-0.8,8.6c1.4,2.5,3.3,4.6,4.9,6.9
						c2.3,3.6,3.8,7.7,4.2,12c15.9-2.1,32.9-9.2,46.9-17.3c-1.8-43.6-10.2-87-17.6-130.1C288.4,489.9,282.5,470.8,286.8,430.9z"/>
					<path id="XMLID_820_" class="st39" d="M271.1,414.9c-2.4,17.1-7.9,33.8-16.1,49c9.3-3.6,18.6-7.2,27.9-10.8
						c-1.8,6.4-2.3,11.9-3.6,18.5c7.8-2.2,16-2.9,24-2.1c-5.7-11.3-11.3-22.6-17-34C282.1,427.1,277.6,421.4,271.1,414.9z"/>
					<path id="XMLID_824_" class="st39" d="M379.6,465.7c-7.4-7.3-12.6-15.7-18.6-24.1c-2.4,4.7-3.5,12,0,16.4c1.8,2.3,5,4,7.5,5.2
						C370.6,464.3,378.6,464.7,379.6,465.7z"/>
				</g>
				<path id="XMLID_15_" class="st37" d="M337.5,397.8c13.5,22.2,28.6,44.5,46.9,62.9c-13.9-1.3-27.7-2.6-41.3-5.4
					c0,3.9-0.6,9-0.6,12.9c-5.9,4.3-13.1,8.7-18.6,13.5c-24-10.2-44.4-15.7-44.4-15.7c0.8-5.1,2-10.9,2.8-16
					c-9.7,4.4-20.4,7.8-30.3,11.8c12.5-23.9,20.8-49.9,24.3-76.6c10.4-0.2,23.9-0.4,34.2,0.7C319.6,386.8,328.8,394.7,337.5,397.8z"
					/>
				<path id="XMLID_13_" class="st40" d="M324.3,413.9c6.1,22.2,5.7,45.5-0.4,67.8c-22.5-22-30.8-54.3-38.2-84.8
					C298.4,400.8,312.3,407.9,324.3,413.9z"/>
				<path id="XMLID_733_" class="st41" d="M324.3,413.9c-11.9-6-25.9-13.1-38.7-17.1c3.1,13,6.5,26.4,11,39.1
					c9.4,8.8,20.1,16.2,31.6,21.2C329.4,442.6,328.1,428,324.3,413.9z"/>
				<g id="XMLID_690_">
					<g id="XMLID_554_">
						<path id="XMLID_694_" class="st42" d="M324.5,501.1c-6.1,0-12.3-1.2-17.9-3.8c-13.1-5.9-24.6-18.4-31.4-34.2
							c-7.9-18.3-10.6-39.7-7.4-57.3c0.3-1.4,1.6-2.3,2.9-2c1.4,0.3,2.3,1.6,2,2.9c-3.1,16.5-0.4,37.3,7,54.4
							c6.4,14.7,16.9,26.2,28.9,31.6c13.4,6,29.8,3.8,40.9-5.4c16.6-13.9,14.5-42.3,12.9-63l-0.1-1.1c-0.1-1.4,0.9-2.6,2.3-2.7
							c1.4-0.1,2.6,0.9,2.7,2.3l0.1,1.1c1.6,21.8,3.9,51.7-14.7,67.3C344.9,497.7,334.7,501.1,324.5,501.1z"/>
					</g>
					<g id="XMLID_696_">
						<path id="XMLID_710_" class="st1" d="M331.5,495.5c-1.4,0.2-2.7,0.4-4.1,0.5c0.3,1.6,0.6,3.3,1,5c1.6-0.1,3.2-0.4,4.8-0.7
							C333.1,498.6,332.6,496.9,331.5,495.5z"/>
					</g>
					<g id="XMLID_669_">
						<path id="XMLID_699_" class="st1" d="M307.6,495.3c0,0-0.9-0.4-2.6-1.1c-0.8-0.4-1.8-0.9-2.9-1.5c-0.5-0.3-1.1-0.7-1.7-1
							c-0.6-0.4-1.2-0.8-1.8-1.2c-0.6-0.4-1.3-0.9-1.9-1.4c-0.7-0.5-1.3-1-2-1.6c-0.7-0.6-1.4-1.1-2.1-1.8c-0.7-0.6-1.4-1.3-2-2
							c-1.4-1.4-2.7-2.9-4-4.4c-1.3-1.6-2.5-3.2-3.7-4.9c-1.2-1.7-2.2-3.5-3.2-5.2c-1-1.8-1.9-3.6-2.7-5.3c-0.8-1.8-1.5-3.5-2.2-5.1
							c-0.6-1.7-1.2-3.2-1.7-4.7c-1-2.9-1.6-5.4-2-7.2c-0.4-1.7-0.6-2.8-0.6-2.8s0.3,1,0.8,2.7c0.5,1.7,1.3,4.2,2.3,7
							c0.5,1.4,1.1,3,1.8,4.6c0.7,1.6,1.5,3.3,2.3,5c0.8,1.7,1.7,3.5,2.7,5.2c1,1.7,2.1,3.5,3.2,5.1c1.1,1.7,2.3,3.3,3.6,4.9
							c1.3,1.6,2.6,3,3.9,4.4c0.6,0.7,1.3,1.3,2,2c0.6,0.7,1.3,1.3,2,1.8c0.6,0.6,1.3,1.1,1.9,1.7c0.6,0.5,1.3,1,1.9,1.5
							c0.6,0.4,1.2,0.9,1.8,1.3c0.6,0.4,1.1,0.8,1.6,1.1c1,0.7,2,1.2,2.8,1.7C306.7,494.8,307.6,495.3,307.6,495.3z"/>
					</g>
					<path id="XMLID_667_" class="st1" d="M273.4,414.6c-2.5-0.9-5.3-1.1-7.9-0.5c-0.8-3.1-0.3-7.6,1.4-10.3
						c0.8-1.4,2.2-2.5,3.8-2.5c2,0,3.7,1.7,4.3,3.6C275.5,406.6,273.4,414.6,273.4,414.6z"/>
					<g id="XMLID_665_">
						<path id="XMLID_698_" class="st42" d="M341.3,688.9C341.3,688.9,341.3,688.9,341.3,688.9c-1.5-0.1-2.6-1.2-2.5-2.6
							c2.3-62.8-1.8-126-12.2-188c-0.2-1.4,0.7-2.7,2.1-2.9c1.4-0.2,2.7,0.7,2.9,2.1c10.5,62.3,14.6,125.9,12.3,189
							C343.8,687.8,342.7,688.9,341.3,688.9z"/>
					</g>
				</g>
				<path id="XMLID_2_" class="st40" d="M260.2,272.4c-5,12.3-6.5,25.7-6.4,38.8c0.3,46.3,20.1,91.2,53.3,121.6
					c4.2,3.8,8.7,7.5,13.7,10.1c15.2,7.9,35.4,5.3,48.9-6.3c2.9-2.5,5.5-5.3,7.2-8.7c5.3-10.3,1.3-22.3-2.7-32.8
					c-8.6-22.4-17.2-45.6-15.9-69.9c1-20.3,8.7-41.8,1.3-60.3c-5.1-12.6-16.8-21.6-29.9-25.1C301.4,232.2,272,243.6,260.2,272.4z"/>
				<path id="XMLID_9_" class="st25" d="M355.3,266.9c-9.1,23.4-30.3,39.6-51.5,53.1c12.5-10.9,26.3-23,36-36.5
					c-16.2,16-34.4,31.3-53.3,43.9c1.3,8.4,2.7,16.9,0.9,25.2c-0.8,3.9-2.4,7.7-4.5,11.2c0,0-1.2,10.7-1.5,16.2
					c-7.4-11.7-14.6-24-22-35.6c-15.7-24.6-21.8-55.6-6.2-82.1c15.5-26.3,45.9-33.9,74-26.1c11.9,3.3,23.8,8.3,31.9,17.6
					C357.5,258.7,357.2,262,355.3,266.9z"/>
				<polygon id="XMLID_31_" class="st43" points="291.8,346.5 258,337.5 259.5,344.3 294.1,358.8 356.4,353.7 348.3,342 
					339.7,343.2 307.2,350.3 				"/>
				<path id="XMLID_756_" class="st7" d="M291.8,346.5c0,0-2.2-0.3-5.4-0.9c-1.6-0.3-3.5-0.7-5.5-1.2c-1-0.2-2-0.5-3.1-0.7
					c-1-0.3-2.1-0.5-3.2-0.8c-1.1-0.3-2.1-0.6-3.1-0.9c-1-0.3-2.1-0.6-3-0.9c-2-0.6-3.8-1.2-5.3-1.7c-3.1-1-5.2-1.9-5.2-1.9
					s2.2,0.3,5.4,0.9c1.6,0.3,3.5,0.7,5.5,1.2c1,0.2,2,0.5,3.1,0.7c1,0.3,2.1,0.5,3.2,0.8c1.1,0.3,2.1,0.6,3.1,0.9
					c1,0.3,2.1,0.6,3,0.9c2,0.6,3.8,1.2,5.3,1.7C289.8,345.6,291.8,346.5,291.8,346.5z"/>
				<path id="XMLID_5_" class="st43" d="M380.7,336.6l-32.4,5.4l1.5,9c2.2,13.1,11.2,22.4,20.2,21h0c9-1.5,14.5-13.3,12.3-26.4
					L380.7,336.6z"/>
				<path id="XMLID_1_" class="st44" d="M378.2,340.1l-26.5,4.4l1.2,7.3c1.8,10.7,9.1,18.3,16.4,17.1l0,0c7.3-1.2,11.8-10.8,10-21.5
					L378.2,340.1z"/>
				<g id="XMLID_752_">
					<path id="XMLID_833_" class="st7" d="M369.8,341.5l-5.3,0.9l-11.1,11.1c0.3,1.2,0.6,2.3,1,3.4L369.8,341.5z"/>
					<path id="XMLID_830_" class="st7" d="M378.2,340.1l-1,0.2l-20.9,20.9c1,1.6,2.1,3,3.3,4.1l19.6-19.6L378.2,340.1z"/>
				</g>
				<linearGradient id="XMLID_724_" gradientUnits="userSpaceOnUse" x1="338.9191" y1="373.0298" x2="391.6503" y2="373.0298">
					<stop  offset="0" style="stop-color:#F7A484"/>
					<stop  offset="0.2466" style="stop-color:#F79B85"/>
					<stop  offset="0.6484" style="stop-color:#F68387"/>
					<stop  offset="1" style="stop-color:#F56889"/>
				</linearGradient>
				<path id="XMLID_4_" class="st45" d="M382.2,361.3c2.3-0.1,4.9,0,6.8,1.5c2.3,1.7,3.1,5,2.4,7.6c-0.7,2.6-2.6,4.7-4.6,6.5
					c-8.5,7.1-20.7,8.8-32.2,7.5c-4.5-0.5-9.4-1.7-12.3-5.3c-7-8.7-2.3-17.5,7.2-16.3C360.8,364.2,371,361.8,382.2,361.3z"/>
				<path id="XMLID_687_" class="st7" d="M349.5,362.7c0,0,0.8,0.1,2.1,0.1c1.3,0.1,3.2,0.1,5.5,0.1c1.1,0,2.4-0.1,3.6-0.2
					c1.3-0.1,2.7-0.2,4.1-0.3c2.8-0.2,5.8-0.6,8.8-0.9c3-0.3,6-0.5,8.9-0.6c1.4,0,2.8,0,4.1,0.4c1.3,0.3,2.5,1,3.3,1.9
					c0.8,0.9,1.3,1.9,1.6,2.8c0.3,0.9,0.3,1.7,0.3,2.4c0,0.7-0.1,1.2-0.2,1.5c-0.1,0.3-0.1,0.5-0.1,0.5s0-0.2,0.1-0.5
					c0-0.4,0.1-0.9,0.1-1.5c0-0.7-0.2-1.4-0.5-2.3c-0.3-0.8-0.8-1.7-1.6-2.5c-0.8-0.8-1.9-1.3-3.1-1.6c-1.2-0.3-2.6-0.3-4-0.2
					c-1.4,0.1-2.9,0.2-4.3,0.3c-1.5,0.1-3,0.3-4.5,0.4c-3,0.3-6,0.6-8.8,0.8c-1.4,0.1-2.8,0.2-4.1,0.2c-1.3,0-2.5,0-3.7,0
					c-1.1,0-2.2-0.1-3.1-0.2c-0.9-0.1-1.7-0.2-2.4-0.2C350.2,362.8,349.5,362.7,349.5,362.7z"/>
				<path id="XMLID_6_" class="st46" d="M318.4,394.4c-0.5-0.1-1-0.2-1.5,0.1c-0.5,0.3-0.8,1-0.9,1.6c-0.5,3.4,1.4,6.8,4.2,8.9
					c2.8,2,6.2,2.9,9.6,3.3c7.4,0.9,15,0,22-2.5c9.3-3.4,11.3-10.9-0.2-10.3C340.2,395.9,329.9,396.2,318.4,394.4z"/>
				<path id="XMLID_689_" class="st7" d="M318.8,403.6c0.5,0.5,1,0.9,1.5,1.3c2.8,2,6.2,2.9,9.6,3.3c7.4,0.9,15,0,22-2.5
					c0.6-0.2,1.1-0.4,1.6-0.7C341.9,406.4,330.2,406.5,318.8,403.6z"/>
				<path id="XMLID_693_" class="st7" d="M359.6,398.1c-0.4-1.8-2.9-3-7.9-2.8c-11.5,0.6-21.8,0.8-33.3-1c-0.5-0.1-1-0.2-1.5,0.1
					c-0.5,0.3-0.8,1-0.9,1.6c-0.1,0.7-0.1,1.4,0,2C330.5,400.7,345.5,400.4,359.6,398.1z"/>
				<path id="XMLID_7_" class="st42" d="M331.6,311.3c-10.3-2-21.7,4.3-25.4,14.1C312.5,317.9,321.9,313,331.6,311.3z"/>
				<path id="XMLID_8_" class="st42" d="M360.7,317.1c-0.6-2.8-2.5-5.3-4.9-6.7c-2.5-1.5-5.5-1.8-8.3-1.1c2.8-0.1,5.6,0.9,7.8,2.6
					C357.1,313.4,359.4,315.2,360.7,317.1z"/>
				<path id="XMLID_10_" class="st25" d="M375.9,302.5c-13.2-10.4-24.2-31.9-23.1-48.7c4.5-0.7,11.4,5.5,14.3,9
					C375.4,273.1,376.8,289.2,375.9,302.5z"/>
				<path id="XMLID_11_" class="st40" d="M268.8,347.8c-3.7-8.5-9.3-16.4-17-21.6c-1.4-1-3.1-1.9-4.8-1.6c-1.9,0.3-3.4,2.1-3.9,4
					c-0.5,1.9-0.2,3.9,0.1,5.8c1.7,11.2,4.8,22.2,10.5,32s14,18.2,24.3,22.7c0-4.8-2.1-17.4-2.7-20.2
					C273.7,361.8,271.8,354.6,268.8,347.8z"/>
				<path id="XMLID_12_" class="st41" d="M249,337.4c0.1-0.6,0.2-1.3,0.8-1.6c0.8-0.5,1.7,0.2,2.4,0.9c2.5,2.6,4.6,5.6,6.3,8.9
					c-1.4,0.8-2.9,1.7-3.7,3.1c-0.8,1.4-0.6,3.5,0.7,4.4c-0.6-1.4,0.4-3.3,1.9-3.8c1.5-0.5,3.2,0.1,4.4,1.2s1.8,2.6,2.3,4.1
					c-3.2,1.1-6.9,2.9-7.4,6.2c-0.4,2.5,1.2,4.9,2.8,6.8c3,3.6,7,7,11.6,6.9c-2.9-1.7-5.9-3.8-7-7c-1.1-3.2,0.9-7.6,4.3-7.6
					c0.8,0-2.6-11-3-12c-1.8-3.8-4.2-7.4-7.3-10.3c-1.8-1.8-5.4-4.9-8.3-4.4c-3.6,0.7-2.6,5.5-1.4,8
					C248.6,339.9,248.8,338.6,249,337.4z"/>
				<g id="XMLID_751_">
					<rect id="XMLID_43_" x="-25.3" y="608.3" class="st28" width="380" height="38.8"/>
					<rect id="XMLID_811_" x="44.3" y="608.3" class="st47" width="4.7" height="38.8"/>
					<rect id="XMLID_793_" x="63.8" y="608.3" class="st47" width="21.8" height="38.8"/>
					<rect id="XMLID_809_" x="147.1" y="608.3" class="st47" width="30.1" height="38.8"/>
					<rect id="XMLID_666_" x="-25.3" y="928.3" class="st26" width="345.1" height="38.8"/>
					<rect id="XMLID_553_" x="44.3" y="928.3" class="st28" width="4.7" height="38.8"/>
					<rect id="XMLID_550_" x="63.8" y="928.3" class="st28" width="21.8" height="38.8"/>
					<rect id="XMLID_326_" x="147.1" y="928.3" class="st28" width="30.1" height="38.8"/>
					<rect id="XMLID_749_" x="-25.3" y="608.3" class="st33" width="380" height="6.5"/>
					<rect id="XMLID_790_" x="20.7" y="608.3" class="st7" width="21.3" height="6.5"/>
					<path id="XMLID_813_" class="st26" d="M354.7,647.1v-38.8H156.6c19.2,18.5,42.7,30.6,68.3,38.8H354.7z"/>
					<rect id="XMLID_805_" x="49" y="608.3" class="st7" width="10" height="6.5"/>
					<rect id="XMLID_810_" x="78" y="608.3" class="st7" width="3.5" height="6.5"/>
					<rect id="XMLID_46_" x="-43.9" y="647.1" class="st48" width="363.7" height="285.9"/>
					<path id="XMLID_807_" class="st49" d="M319.9,647.1h-93c17.9,52.4,93,81.2,93,81.2V647.1z"/>
				</g>
				<path id="XMLID_22_" class="st39" d="M267.4,586.8c0,0,13.6,41.2-14.1,43C225.7,631.5,247.1,588.6,267.4,586.8z"/>
				<linearGradient id="XMLID_725_" gradientUnits="userSpaceOnUse" x1="333.7218" y1="598.3903" x2="365.024" y2="598.3903">
					<stop  offset="0" style="stop-color:#F7A484"/>
					<stop  offset="0.2466" style="stop-color:#F79B85"/>
					<stop  offset="0.6484" style="stop-color:#F68387"/>
					<stop  offset="1" style="stop-color:#F56889"/>
				</linearGradient>
				<path id="XMLID_25_" class="st50" d="M349.3,594.3c4.6,1.8,9.1,3.7,13.7,5.5c0.5,0.2,0.9,0.4,1.3,0.7c0.8,0.7,1,2,0.6,3
					c-0.4,1-1.2,1.8-2.1,2.4c-3,2.1-7,2.4-10.6,1.8s-7-2.1-10.4-3.7c-2.1-0.9-4.3-2-5.7-3.8c-2.1-2.7-4.1-10.1,0.2-11.5
					C339.7,587.7,346.1,593.1,349.3,594.3z"/>
				<path id="XMLID_24_" class="st40" d="M247.8,598.9c2.7-0.9,5.6-0.9,8.4-1c7.6-0.2,15.2-0.3,22.7-0.5
					c9.5-8.5,20.4-16.8,32.1-21.8c5.2-2.2,11-4,16.4-2.4c6.7,2,10.9,8.7,14.4,14.7c2.7,4.7,5.4,9.4,7.8,14.3c3,6,5.8,12.4,4.7,19.1
					c-0.2,1.4-1.3,2.5-2.6,2.7c-1.4,0.2-2.2-0.8-2.9-1.7c-6.1-8.6-10.9-18.1-14.2-28.1c3.4,11.5,6.1,23.2,8,35
					c0.3,1.6-0.6,3.2-2.1,3.7c-2.1,0.7-3.4-1.1-4.3-2.8c-5.2-9.5-10.1-19.2-14.9-28.9c5.4,10,8.1,21.4,7.8,32.8
					c-2.4,1-4.5-1.9-5.5-4.3c-2.9-6.9-5.9-13.8-8.8-20.8c3.3,7.4,5.2,15.4,5.8,23.5c0.2,3.3-3.6,5.4-6.2,3.3c0,0,0,0-0.1,0
					c-1.7-1.5-2.8-3.6-3.8-5.7c-2.7-5.3-5.3-10.5-8-15.8c-5.5,2.3-13,7.1-18.9,5.9c-3.1-0.6-5.9-2.2-8.9-3.1
					c-11.1-3.4-23.1,2.5-34.5,0.4C242.1,611,245.4,605.3,247.8,598.9z"/>
				<path id="XMLID_17_" class="st33" d="M227.2,510c-18.7,20.5-36,44.9-43,71.7c4.2,2.9,9.6,3.3,14.7,3.5
					c22.7,1.1,45.9,2.2,68.6,1.6c-6.9,4.5-12.2,11.5-14.6,19.4c-2.5,7.9-2.5,15.9,0.6,23.6c-21.9,0.8-44-0.9-65.5-5.1
					c-8.2-1.6-16.4-3.5-23.7-7.4c-7.4-3.8-14-9.7-17.2-17.4c-3.1-7.3-2.9-15.5-2.3-23.3c1.3-16.7,6-35.7,11.3-51.6
					c22.4-67.3,58.9-80.1,58.9-80.1C227.1,462.4,241.7,494.1,227.2,510z"/>
				<linearGradient id="XMLID_726_" gradientUnits="userSpaceOnUse" x1="348.1982" y1="687.7645" x2="348.1982" y2="708.8021">
					<stop  offset="0" style="stop-color:#F7A484"/>
					<stop  offset="0.2466" style="stop-color:#F79B85"/>
					<stop  offset="0.6484" style="stop-color:#F68387"/>
					<stop  offset="1" style="stop-color:#F56889"/>
				</linearGradient>
				<path id="XMLID_686_" class="st51" d="M346.1,711c0.4,1.4,1.4,3,2.8,2.8c1.2-0.2,1.8-1.6,2.1-2.8c0.9-3.8,1.1-7.8,0.6-11.6
					c-0.3-2.3-0.8-4.5-0.8-6.8c0.1-2.5,0.8-5,2.2-7.2c-1.9-1-4.4-0.2-6,1.3C340.8,692.7,343.9,704,346.1,711z"/>
				<linearGradient id="XMLID_727_" gradientUnits="userSpaceOnUse" x1="342.0999" y1="691.5197" x2="343.6501" y2="718.3151">
					<stop  offset="0" style="stop-color:#F7A484"/>
					<stop  offset="0.2466" style="stop-color:#F79B85"/>
					<stop  offset="0.6484" style="stop-color:#F68387"/>
					<stop  offset="1" style="stop-color:#F56889"/>
				</linearGradient>
				<path id="XMLID_28_" class="st52" d="M342.6,716.2c0.7,1.5,1.9,3.2,3.5,2.9c0.9-0.2,1.6-1.1,1.9-2c0.2-0.9,0.1-1.9-0.2-2.8
					c-0.6-2.4-1.5-4.7-2.2-7c-1.4-5.3-1.1-10.8-0.3-16.2c0.2-1-5.2,2.1-5.7,2.8c-1.3,2-1.8,4.8-1.5,7.1
					C338.8,706.1,340.5,711.6,342.6,716.2z"/>
				<linearGradient id="XMLID_728_" gradientUnits="userSpaceOnUse" x1="339.5085" y1="696.2667" x2="340.4071" y2="728.7995">
					<stop  offset="0" style="stop-color:#F7A484"/>
					<stop  offset="0.2466" style="stop-color:#F79B85"/>
					<stop  offset="0.6484" style="stop-color:#F68387"/>
					<stop  offset="1" style="stop-color:#F56889"/>
				</linearGradient>
				<path id="XMLID_27_" class="st53" d="M342.1,724.6c0.6,0.3,1.4,0.6,1.9,0.2c0.5-0.3,0.7-0.9,0.8-1.4c0.5-3.1-1.3-6-2.5-8.8
					c-2.7-6.1-3-13.2-0.9-19.5c0.7-2,1.6-4,1.7-6.2c-0.6-0.3-1.3,0.2-1.7,0.6c-5,4.7-5.9,12.2-6.3,19c-0.2,3.8,0.4,5.9,2.3,9
					C339,720.1,339.4,723.1,342.1,724.6z"/>
				<path id="XMLID_16_" class="st40" d="M370.6,645.2c-5.7,5.9-11.3,11.9-17,17.8c-8.5,8.9-17.2,18.1-21.7,29.5
					c-4.5,11.4-3.9,25.7,4.7,34.5c0,0,0,0,0,0c1.7,0.4,3.3-0.9,3.2-2.6c-0.2-4-1.3-8-1.8-12.1c-0.6-5.3,0.4-11.4,4.8-14.4
					c2.1-1.5,4.7-2,7.1-2.8c14.5-5.3,20.1-22.6,31.4-33c3.9-3.6,9-6.9,9.9-12.2c0.8-4.1-1.5-8.5-5.2-10.2
					C382.5,637.8,373.5,642.2,370.6,645.2z"/>
				<path id="XMLID_18_" class="st33" d="M385,670.1c24.2-12.4,46-29.6,63.6-50.3c1.8-2.1,3.6-4.3,4.6-6.9c1.5-3.6,1.5-7.6,1.4-11.5
					c-0.8-28.3-4-58.4-10.5-85.9c-15.9-67.3-56.5-77.2-56.5-77.2c4.9,24.8,9.1,49.8,13.1,74.7c3.7,22.9,14.6,47.8,18.7,71.3
					c1,5.5-0.8,11.1-4.7,15c-7.7,7.7-15.8,12.1-25.3,20.2c-9.2,7.9-18.3,15.8-27.5,23.7C370,650.2,381.2,660.1,385,670.1z"/>
				<path id="XMLID_21_" class="st54" d="M317.2,859.8c0,0-44.3,2.5-60.6,41C256.6,900.8,295.7,902.6,317.2,859.8z"/>
				<path id="XMLID_19_" class="st55" d="M316.9,860.2c7.2-59.1,14.8-119.3,39.8-173.4c5.5-11.9,13.2-24.5,25.9-27.9
					c18.6-4.9,44.4,9.9,47.6,28.9c2.9,17.3-7.1,33.9-16.6,48.6C383.3,783.1,353,817.9,316.9,860.2z"/>
				<path id="XMLID_808_" class="st35" d="M430.1,687.8c-1.5-8.8-7.8-16.8-16.1-22.2c2,7.2,2.5,14.7,0.8,22.6
					c-9.7,44.3-34.5,79.7-64.7,112.5c-9.9,11.4-19.9,22.4-30,33.2c-1.1,8.8-2.2,17.6-3.3,26.3c36.1-42.2,66.4-77.1,96.6-123.8
					C423,721.7,433,705.1,430.1,687.8z"/>
				<path id="XMLID_23_" class="st54" d="M464.5,940.9c0,0,36.3-9.1,53.1,30.8C517.6,971.7,480.5,979.2,464.5,940.9z"/>
				<path id="XMLID_32_" class="st26" d="M478.3,625.5c-2.8-20.8-5.1-41.8-3.3-62.6c1.8-20.9,7.9-41.8,20.6-58.5
					C503.7,546.2,496.6,587,478.3,625.5z"/>
				<path id="XMLID_3_" class="st43" d="M339.7,343.2l-47.9,3.3l0.6,9.1c0.9,13.2,12.4,23.2,25.6,22.3h0
					c13.2-0.9,23.2-12.4,22.3-25.6L339.7,343.2z"/>
				<path id="XMLID_682_" class="st44" d="M336.2,346l-40.6,2.8l0.5,7.7c0.8,11.2,10.5,19.7,21.7,18.9h0
					c11.2-0.8,19.7-10.5,18.9-21.7L336.2,346z"/>
				<path id="XMLID_823_" class="st7" d="M303.7,348.2l-7.6,7.6l0,0.7c0.2,2.8,0.9,5.4,2.1,7.8l16.8-16.8L303.7,348.2z"/>
				<path id="XMLID_822_" class="st7" d="M303.1,370.4l23.8-23.8l-4.8,0.3l-21.2,21.2C301.6,368.9,302.3,369.7,303.1,370.4z"/>
				<path id="XMLID_827_" class="st7" d="M336.8,353.6l-0.3-4.3l-25.3,25.3c1.9,0.5,4,0.8,6.1,0.7l19.5-19.5
					C336.8,355.1,336.8,354.4,336.8,353.6z"/>
				<path id="XMLID_683_" class="st56" d="M260.9,265.5c-1.5,2.9-2.2,6.3-1.7,9.5c2.9-2.2,6.4-3.6,10-4c-0.4,3.7,4.1,5.8,7.8,6.5
					c10.8,2,22,1.9,32.8-0.4c2.2-0.5,4.5-1,6.6-0.1c2.1,0.9,3.3,3.8,1.7,5.4c1.6,1.5,4.1,0.6,6-0.3c5.9-2.8,11.7-5.6,17.6-8.3
					c-8.7,12.4-20.1,22.8-33.1,30.4c2.9-2.3,5.4-5.2,7-8.5c-2.5,1.5-5.4,3-8.1,2.1s-3.6-5.7-0.9-6.4c-2-2.1-5.5-0.2-8,1.2
					c-5.1,2.8-11.2,3.1-17,3.2c-3,0.1-6.2,0.1-9.1-0.9c-2.9-1-5.5-3.2-6.1-6.2c-0.5-2.4,0-5.6-2.2-6.7c-1.8,1.7-3.3,3.7-4.4,5.9
					c-1.8-3.1-2.9-6.6-3.2-10.2c-2.9,4.3-4.5,8.9-6.2,13.7c-0.4-4.6,0.9-10.3,2.5-14.6C254.7,271.8,258.7,269.6,260.9,265.5z"/>
				<path id="XMLID_684_" class="st56" d="M360.5,276.1c0.4,0.3,1,0.6,1.5,0.3c0.4-0.3,0.4-0.9,0.7-1.3c0.6-0.7,1.7-0.2,2.7-0.1
					c1.3,0.1,2.5-0.9,3-2.1c0.4-1.2,0.2-2.6-0.4-3.8c1.7,1.3,2.8,3.2,3.4,5.1c0.7,2,0.9,4.1,1.1,6.2c-0.2-1.4-0.9-2.7-2.1-3.5
					c-0.1,1.4-0.3,2.8-1.2,3.8s-2.8,1.2-3.5,0c-0.3-0.6-0.5-1.6-1.2-1.6c-0.5,0-0.8,0.6-0.8,1.1s-0.1,1.1-0.6,1.4
					c-0.6,0.4-1.3-0.2-1.7-0.7c-1.3-1.4-2.7-3.1-3.5-4.9C356.9,273.1,359.4,275.3,360.5,276.1z"/>
				<path id="XMLID_792_" class="st39" d="M184.2,581.7c0,0-0.7,0-1.9,0.1c-5.8,0.5-23.4,2.6-28.3,10.7L184.2,581.7z"/>
				<path id="XMLID_802_" class="st39" d="M220.1,518c0,0-7.6-40.6-14.3-56.1C205.8,461.9,223,481,220.1,518z"/>
				<path id="XMLID_815_" class="st39" d="M220.1,518c0,0,4.8-13.1,0.3-32.6C220.5,485.4,228.7,492.6,220.1,518z"/>
				<path id="XMLID_818_" class="st39" d="M407.6,540.7c0,0,4.6-56.5-1.3-73.7C406.3,467.1,422.4,482.1,407.6,540.7z"/>
				<path id="XMLID_819_" class="st39" d="M407.6,540.7c0,0-0.1-45.3-4.2-55.3C403.3,485.4,402.4,509.2,407.6,540.7z"/>
				<path id="XMLID_758_" class="st39" d="M441,593.8c-7.1-2.2-14.9-2-21.9,0.4C426,589.6,433.8,589.8,441,593.8z"/>
				<path id="XMLID_821_" class="st39" d="M419.1,594.2c-1.1,1.3-0.5-28.4,15.3-37.1C434.4,557.1,423.6,589.2,419.1,594.2z"/>
				
					<rect id="XMLID_849_" x="247.4" y="504.4" transform="matrix(0.989 -0.1481 0.1481 0.989 -72.3961 45.057)" class="st39" width="37.9" height="8.2"/>
				
					<rect id="XMLID_839_" x="248.5" y="502.8" transform="matrix(0.989 -0.1481 0.1481 0.989 -72.1481 45.2088)" class="st7" width="37.9" height="8.2"/>
			</g>
			<g id="XMLID_883_">
				<g id="XMLID_886_">
					<path id="XMLID_980_" class="st57" d="M746.3,932.1c0.5-3.2,1-6.4,1.6-9.5l1.6-9.5l1.7-9.5l1.8-9.5c0.6-3.2,1.2-6.3,1.8-9.5
						c1.2-6.3,2.5-12.6,3.7-18.9l3.9-18.9c1.4-6.3,2.7-12.6,4.1-18.8c1.4-6.3,2.7-12.5,4.2-18.8l2.1-9.4c0.7-3.1,1.4-6.3,2.2-9.4
						l1.2-5.2l5.5-0.1l21.3-0.2l21.3-0.1l21.3,0.1c3.6,0,7.1,0.1,10.7,0.1l10.7,0.1l5.2,0.1l1.4,4.9c1.8,6.2,3.5,12.5,5.3,18.8
						c1.8,6.3,3.5,12.5,5.2,18.8c1.7,6.3,3.4,12.6,5.1,18.9c0.8,3.1,1.6,6.3,2.5,9.4l2.4,9.4c1.6,6.3,3.2,12.6,4.7,18.9l2.3,9.5
						l2.3,9.5l2.2,9.5l2.1,9.5c0.7,3.2,1.4,6.4,2.1,9.6c0.7,3.2,1.4,6.4,2,9.6c-1.2-3-2.4-6.1-3.6-9.1c-1.2-3-2.4-6.1-3.5-9.1
						l-3.5-9.1l-3.4-9.2l-3.3-9.2l-3.3-9.2c-2.2-6.1-4.3-12.3-6.5-18.4l-3.2-9.2c-1-3.1-2.1-6.2-3.1-9.2c-2-6.2-4.1-12.3-6.1-18.5
						c-2-6.2-4.1-12.4-6-18.6c-1.4-4.5-2.9-9.1-4.3-13.6l-5.6,0.1c-3.6,0-7.1,0.1-10.7,0.1l-21.3,0.1l-21.3-0.1l-16-0.2
						c-0.4,1.3-0.7,2.7-1.1,4l-2.5,9.3c-1.6,6.2-3.4,12.4-5,18.6c-1.7,6.2-3.4,12.4-5.2,18.5L768,868c-1.8,6.2-3.6,12.3-5.5,18.5
						c-0.9,3.1-1.8,6.2-2.8,9.2l-2.8,9.2l-2.9,9.2l-3,9.2c-1,3.1-2,6.1-3,9.2c-1,3-2.1,6.1-3.1,9.1
						C745.3,938.4,745.8,935.2,746.3,932.1z"/>
					<path id="XMLID_977_" class="st26" d="M1035.9,561.1h14c15.9,0,28.1,14.2,25.7,30l-28.4,183.8c-1.7,10.8-11,18.8-22,18.8H750.5
						v-39.1h149.7L1035.9,561.1z"/>
					<path id="XMLID_971_" class="st30" d="M896.7,544h144c10,0,17.6,8.9,16.1,18.8l-30.7,195.6c-1.2,7.7-7.8,13.4-15.6,13.4H875.6
						L896.7,544z"/>
					<path id="XMLID_954_" class="st54" d="M896.7,544h29.8c12.3,13.6,22.4,28.7,31.3,45.7c30.3,57.2,44.8,119.1,48.3,182.1H875.6
						L896.7,544z"/>
					<g id="XMLID_948_">
						<path id="XMLID_949_" class="st54" d="M995.6,754.5c7.8,0,14.4-5.7,15.6-13.4l30.7-195.6c0.1-0.5,0.1-1,0.2-1.5
							c9.3,0.8,16.2,9.3,14.7,18.7l-30.7,195.6c-1.2,7.7-7.8,13.4-15.6,13.4H875.6l1.6-17.2H995.6z"/>
					</g>
				</g>
				<g id="XMLID_565_">
					<path id="XMLID_956_" class="st26" d="M1238.9,561.1h14c15.9,0,28.1,14.2,25.7,30l-28.4,183.8c-1.7,10.8-11,18.8-22,18.8H953.5
						v-39.1h149.7L1238.9,561.1z"/>
					<path id="XMLID_953_" class="st26" d="M1087.3,932.1c0.5-3.2,1-6.4,1.6-9.5l1.6-9.5l1.7-9.5l1.8-9.5c0.6-3.2,1.2-6.3,1.8-9.5
						c1.2-6.3,2.5-12.6,3.7-18.9l3.9-18.9c1.4-6.3,2.7-12.6,4.1-18.8c1.4-6.3,2.7-12.5,4.2-18.8l2.1-9.4c0.7-3.1,1.4-6.3,2.2-9.4
						l1.2-5.2l5.5-0.1l21.3-0.2l21.3-0.1l21.3,0.1c3.6,0,7.1,0.1,10.7,0.1l10.7,0.1l5.2,0.1l1.4,4.9c1.8,6.2,3.5,12.5,5.3,18.8
						c1.8,6.3,3.5,12.5,5.2,18.8c1.7,6.3,3.4,12.6,5.1,18.9c0.8,3.1,1.6,6.3,2.5,9.4l2.4,9.4c1.6,6.3,3.2,12.6,4.7,18.9l2.3,9.5
						l2.3,9.5l2.2,9.5l2.1,9.5c0.7,3.2,1.4,6.4,2.1,9.6c0.7,3.2,1.4,6.4,2,9.6c-1.2-3-2.4-6.1-3.6-9.1c-1.2-3-2.4-6.1-3.5-9.1
						l-3.5-9.1l-3.4-9.2l-3.3-9.2l-3.3-9.2c-2.2-6.1-4.3-12.3-6.5-18.4l-3.2-9.2c-1-3.1-2.1-6.2-3.1-9.2c-2-6.2-4.1-12.3-6.1-18.5
						c-2-6.2-4.1-12.4-6-18.6c-1.4-4.5-2.9-9.1-4.3-13.6l-5.6,0.1c-3.6,0-7.1,0.1-10.7,0.1l-21.3,0.1l-21.3-0.1l-16-0.2
						c-0.4,1.3-0.7,2.7-1.1,4l-2.5,9.3c-1.6,6.2-3.4,12.4-5,18.6c-1.7,6.2-3.4,12.4-5.2,18.5l-5.3,18.5c-1.8,6.2-3.6,12.3-5.5,18.5
						c-0.9,3.1-1.8,6.2-2.8,9.2l-2.8,9.2l-2.9,9.2l-3,9.2c-1,3.1-2,6.1-3,9.2c-1,3-2.1,6.1-3.1,9.1
						C1086.3,938.4,1086.8,935.2,1087.3,932.1z"/>
					<path id="XMLID_950_" class="st30" d="M1099.7,544h144c10,0,17.6,8.9,16.1,18.8l-30.7,195.6c-1.2,7.7-7.8,13.4-15.6,13.4
						h-134.9L1099.7,544z"/>
					<path id="XMLID_899_" class="st54" d="M1099.7,544h29.8c12.3,13.6,22.4,28.7,31.3,45.7c30.3,57.2,44.8,119.1,48.3,182.1h-130.5
						L1099.7,544z"/>
					<g id="XMLID_879_">
						<path id="XMLID_882_" class="st54" d="M1198.6,754.5c7.8,0,14.4-5.7,15.6-13.4l30.7-195.6c0.1-0.5,0.1-1,0.2-1.5
							c9.3,0.8,16.2,9.3,14.7,18.7l-30.7,195.6c-1.2,7.7-7.8,13.4-15.6,13.4h-134.9l1.6-17.2H1198.6z"/>
					</g>
				</g>
				<g id="XMLID_558_">
					<linearGradient id="XMLID_729_" gradientUnits="userSpaceOnUse" x1="650.5075" y1="596.9366" x2="668.2567" y2="596.9366">
						<stop  offset="0" style="stop-color:#F7A484"/>
						<stop  offset="0.2466" style="stop-color:#F79B85"/>
						<stop  offset="0.6484" style="stop-color:#F68387"/>
						<stop  offset="1" style="stop-color:#F56889"/>
					</linearGradient>
					<path id="XMLID_563_" class="st58" d="M668.2,599.9c-0.1-2.5-1-5-2.8-6.8c-1.8-1.7-4.5-2.6-6.9-1.8l-0.9,0.8
						c-1.2-0.4-2.6,0.1-3.6,0.9s-1.6,2-2.3,3.2c-0.9,1.6-1.7,3.5-0.7,5c0.9,1.3,2.7,1.5,4.4,1.5c3.8,0.1,7.6,0.1,11.3-0.7
						c0.5-0.1,1-0.3,1.3-0.7C668.2,601,668.3,600.4,668.2,599.9z"/>
					<path id="XMLID_629_" class="st40" d="M689.6,606.9c-3.5-1-6.9-2-10.4-3.1c-1.1-3.9-4.1-7.6-6.7-10.7c-1.8-2.1-3.9-4-6.5-5.1
						c-3.2-1.3-7-1.2-10.3,0s-6.2,3.3-8.7,5.7c-1.5,1.5-3,3.5-2.7,5.7c0.1,0.5,0.3,1,0.6,1.4c0.8,0.8,2.3,0.6,3.2-0.1
						c0.9-0.7,1.5-1.8,2.2-2.7c3.1-3.9,9.3-4.9,13.5-2.2c-4.7,1.1-8.9,3.8-11.9,7.6c-0.8,1-1.6,2.4-1,3.6c0.6,1.3,2.4,1.5,3.7,1.1
						c1.4-0.4,2.6-1.2,4-1.3c2.7-0.3,5,1.8,7.3,3.2c3.3,1.9,7.4,2.4,11,1.4c0.5,1.5,1.9,2.8,2.9,4.1c1.6,2,3.2,4,5.1,5.6
						s4.4,2.8,6.9,2.8c1.6-2.3,1.5-5.3,1.3-8.1C693.2,612.3,692.8,607.9,689.6,606.9z"/>
					<path id="XMLID_623_" class="st59" d="M728.8,579.3c-5.6,6.9-10.9,14.3-18.2,19.4c-7.3,5.1-17.4,7.3-25.1,2.8
						c-1.2,8.3-3.1,16.6-5.4,24.7c12.3,7,26.2,11.8,40.3,11.1s28.4-7.6,35.6-19.8c4.2-7.1,5.8-15.5,6.3-23.7
						c0.5-9.3-1.1-22.6-10.6-27.5C742.7,561.5,733.9,573.1,728.8,579.3z"/>
					<path id="XMLID_874_" class="st60" d="M712.5,604.9c2.7-8.9,22.1-30.7,25.8-35.9c-3.7,3.1-7,7.2-9.4,10.2
						c-5.6,6.9-10.9,14.3-18.2,19.4c-4.3,3-9.6,5-14.8,5.2c8.1,3.6,16.4,6.2,25.5,7.3C718.7,609.4,717.1,607.2,712.5,604.9z"/>
					<path id="XMLID_586_" class="st61" d="M786.8,664.7c-41,8.5-79.2,30.1-107.7,60.8c-6.4,6.9-9.6,16.3-8.6,25.7
						c4.5,46.1,11.8,82.6,24.3,128.4c3.9-33.9,6.4-69.6,7.2-103.7c11.7-6.8,24.1-15.4,36.4-21.3c27.1-13,54.1-25.9,81.2-38.9
						c10.7-5.1,21.9-10.6,29.3-19.9c7.4-9.3,9.9-23.7,2.4-32.9c-8.5-10.5-24.8-9.6-37.6-5.4C804.8,660.3,795.9,662.9,786.8,664.7z"
						/>
					<path id="XMLID_567_" class="st62" d="M851.2,662.9c-8.5-10.5-24.8-9.6-37.6-5.4c-8.8,2.9-17.8,5.4-26.8,7.3
						c-40.9,8.5-79,30.1-107.6,60.6c10,26.2,16.9,53.1,21.6,80.3c0.5-10,0.9-19.9,1.1-29.8c11.7-6.8,24.1-15.4,36.4-21.3
						c27.1-13,54.1-25.9,81.2-38.9c10.7-5.1,21.9-10.6,29.3-19.9C856.3,686.5,858.8,672.1,851.2,662.9z"/>
					<path id="XMLID_395_" class="st61" d="M852,669c-45.6,18.3-83.7,54.3-104.8,98.6c-3.1,6.5-4,13.9-2.5,21
						c9.8,46.1,23.1,95.3,53.2,130.6c-2.4-38.1-2.8-76.8-5.2-114.9c44.1-22.1,86.8-46.2,127.1-74.7c9.1-6.5,18.3-13.2,24.8-22.4
						s10-21.1,6.5-31.7c-3.3-10.1-12.3-17.3-21.6-22.4c-12.1-6.5-25.9-10.4-39.7-9.6C875.9,644.4,864.8,663.8,852,669z"/>
					<path id="XMLID_891_" class="st62" d="M951,675.5c-3.3-10.1-12.3-17.3-21.6-22.4c-12.1-6.5-25.9-10.4-39.7-9.6
						c-13.8,0.9-24.8,20.3-37.6,25.5c-5.3,2.1-10.5,4.5-15.6,7.1c7.3,19.8,24.2,34.8,43.4,44C848,749.3,813.5,775,773.6,791
						c5.5,27.6,12.9,54.6,22,81c-0.8-22.6-1.6-45.3-3-67.7c44.1-22.1,86.8-46.2,127.1-74.7c9.1-6.5,18.3-13.2,24.8-22.4
						C951,698.1,954.5,686.1,951,675.5z"/>
					<path id="XMLID_394_" class="st63" d="M840.6,505.4c-14.1,23.2-31.1,45.9-54.9,58.8c-1.3,0.7-2.7,1.5-3.1,2.9
						c-0.4,1.4,0.3,2.8,1.1,4.1c3.5,6.2,7.1,12.4,10.6,18.6c0.8,1.3,1.7,2.8,3.1,3.3c1,0.3,2.1,0.2,3.1,0
						c25.7-4.1,50.1-15.5,69.6-32.7c6.4-5.6,12.4-12,16.1-19.7c3.6-7.3,4.9-15.5,6-23.6c3.5-26,5.1-52.3,4.6-78.6
						c0-2.3-13,0.3-14.6,1.3c-6,3.8-11.1,14.7-14.9,20.6C857.8,475.1,849.6,490.5,840.6,505.4z"/>
					<path id="XMLID_392_" class="st64" d="M830.4,646c14.7,1.6,29.5,2,44.3,1.2c2.9-0.2,6.1-0.6,7.9-2.9c1.1-1.5,1.4-3.4,1.5-5.3
						c6.7-66,8.8-132.6,6.5-198.9c-0.1-3.2,1.1-15.6-4.2-16.6c-4.8-0.8-7,10.3-8.4,14.3c-4.6,13-7.8,26.3-10.4,39.8
						c-5.1,27.2-7.3,54.8-11.3,82.1c-2.2,15.1-5,30.2-9.2,44.9C845.8,609.3,834.9,646.5,830.4,646z"/>
					<path id="XMLID_564_" class="st7" d="M878,438c0,0-0.8,2.5-2.1,7c-0.7,2.2-1.4,4.9-2.2,8.1c-0.8,3.1-1.6,6.7-2.5,10.6
						c-0.9,3.9-1.7,8.1-2.5,12.6c-0.8,4.5-1.6,9.2-2.3,14.1c-1.5,9.8-2.8,20.4-4.1,30.9c-1.3,10.5-2.6,21.1-4,31
						c-1.4,9.9-3,19-4.5,26.9c-1.6,7.8-3.2,14.3-4.4,18.8c-0.6,2.2-1.1,4-1.5,5.2c-0.4,1.2-0.6,1.8-0.6,1.8s0.7-2.6,1.7-7.1
						c1.1-4.5,2.4-11,3.8-18.9c0.7-3.9,1.4-8.2,2-12.7c0.7-4.5,1.3-9.3,2-14.2c1.3-9.9,2.5-20.4,3.8-31c1.3-10.5,2.7-21.1,4.3-30.9
						c0.4-2.5,0.8-4.9,1.2-7.2c0.5-2.3,0.9-4.7,1.4-6.9c0.9-4.5,1.9-8.7,2.8-12.6c1.9-7.8,3.9-14.1,5.4-18.5
						c0.7-2.2,1.4-3.9,1.8-5.1C877.7,438.6,878,438,878,438z"/>
					<path id="XMLID_681_" class="st42" d="M666.2,732.5c0,0-7.3,0.9-10,9.8c0,0,13.2,1.8,19.4-11.1
						C681.9,718.2,666.2,732.5,666.2,732.5z"/>
					<path id="XMLID_678_" class="st65" d="M727.4,654.4c-7.2,2.4-14.5,4.8-21.7,7.3c-12.9,4.3-26.6,9.2-34.6,20.1
						c-5.2,7-7.4,15.9-7.7,24.6c-0.3,8.7,1.2,17.4,2.8,26c3-1.3,6.3-1.8,9.5-1.3c2.1-4.2,3.7-8.9,6.2-12.9c2.5-4.1,5.2-8.1,9-11
						c5.5-4.2,12.5-5.7,19.3-7.1c9.8-2.1,19.5-4.6,29.1-7.3c3.3-0.9,6.7-2,9.5-4c4.4-3.3,6.7-8.9,7.6-14.4c1.1-6.1,0.6-13-3.5-17.8
						C747.1,649.8,735.8,651.6,727.4,654.4z"/>
					<path id="XMLID_922_" class="st46" d="M752.9,656.6c-5.8-6.8-17.1-5-25.5-2.2c-1,0.3-2.1,0.7-3.1,1
						c8.5,21.7-30.4,30.4-41.9,45.1c-7.1,8.9-9.9,19.4-10.4,30.4c1.3-0.1,2.5-0.1,3.8,0.1c2.1-4.2,3.7-8.9,6.2-12.9
						c2.5-4.1,5.2-8.1,9-11c5.5-4.2,12.5-5.7,19.3-7.1c9.8-2.1,19.5-4.6,29.1-7.3c3.3-0.9,6.7-2,9.5-4c4.4-3.3,6.7-8.9,7.6-14.4
						C757.4,668.2,756.9,661.4,752.9,656.6z"/>
					<path id="XMLID_675_" class="st65" d="M755.2,663.6c-10.2,8.3-22,15.2-29.8,25.8c-8.1,10.9-11.2,25.2-9.7,38.7
						c1.5,13.5,7.3,26.3,15.5,37.2c2.1-0.6,5-1.1,7-1.7c-1.1-14.9,6-30.2,17.4-39.8c9.2-7.7,20.8-11.6,31.9-16.1
						s22.4-10.2,29.2-20.1c8.1-11.8,8.2-27,8-41.3C800.8,648.4,778.9,659.9,755.2,663.6z"/>
					<path id="XMLID_913_" class="st46" d="M824.7,646.3c-23.9,2.1-45.8,13.6-69.5,17.3c-5.6,4.6-11.6,8.7-17.3,13.2
						c11.1,7.6,24.6,11.6,37.5,14.9c-28,16.3-38.4,43.4-39.6,72.4c0.8-0.2,1.7-0.4,2.4-0.6c-1.1-14.9,6-30.2,17.4-39.8
						c9.2-7.7,20.8-11.6,31.9-16.1c11.1-4.5,22.4-10.2,29.2-20.1C824.8,675.8,824.9,660.6,824.7,646.3z"/>
					<path id="XMLID_622_" class="st60" d="M757.5,551.4c-15.7,11.6-26.7,28.8-32.5,47.3c-5.8,18.6-6.7,38.5-4.4,57.8
						c36.4,18.1,79,19.1,116.9,4.6c1-43.3-6-86.5-23.7-126c-0.7-1.6-1.6-3.3-3.2-3.9c-1.3-0.5-2.8,0-4.1,0.4
						C790.1,537.3,771.4,541.2,757.5,551.4z"/>
					<path id="XMLID_906_" class="st59" d="M813.8,535.2c-0.7-1.6-1.6-3.3-3.2-3.9c-1.3-0.5-2.8,0-4.1,0.4
						c-16.4,5.6-35,9.4-48.9,19.7c-3.2,2.4-6.2,5-9.1,7.8c10.9,11,29,13.1,42.8,18.2c3.5,30.1,1.8,62.9-16.8,88.6
						c-1.2,1.6-2.5,3.1-3.8,4.6c22.5,2,45.4-1.3,66.9-9.5C838.5,617.9,831.6,574.7,813.8,535.2z"/>
					<path id="XMLID_647_" class="st60" d="M852.5,575c6.6,8.7,12.2,19,11.4,29.9c-0.1,0.7-0.1,1.5-0.6,2.1c-0.4,0.5-1,0.9-1.6,1.2
						c-11.1,5.6-23.8,7.9-36.2,6.5c-1.7-0.2-3.6-0.6-4.8-1.8c-0.6-0.7-1-1.6-1.3-2.5c-7.2-19.4-12.1-40.2-10.3-60.8
						c0.5-5.3,2.3-9.3,7.6-6.2c4.6,2.7,9,5.7,13.1,9C838.5,558.7,846.1,566.4,852.5,575z"/>
					<path id="XMLID_562_" class="st59" d="M835.1,576.3c-3.6-0.3-7.3,0.1-10.9,0.6c-7.8,1.1-15.4,2.7-22.9,4.9l59,11.7
						C855.7,583.9,845.7,577.1,835.1,576.3z"/>
					<path id="XMLID_391_" class="st66" d="M867.9,503c-1.7,31.1-1,62.6-7.3,93.1c-5.8,27.9-17.4,54.6-33.9,77.8
						c31.5,11.3,65.4,15.6,98.7,12.6c3.4-46.2,6.8-92.6,2.1-138.7c-2.5-24.9-7.4-49.5-10.5-74.4c-1.4-10.7-8.5-75.2-28.6-57.3
						c-9.7,8.7-12.7,28.6-15.2,40.7C870.1,472.1,868.7,487.6,867.9,503z"/>
					<path id="XMLID_117_" class="st40" d="M860.8,382.8c11.1,9.5,19.9,21.8,25.4,35.3c-3.6,9.6-4.7,19.8-3.8,30
						c9.6-12.3,19-26.6,24.1-41.3c-7.8-24.5-13.9-50.1-17.7-75.5C877.7,346.9,867.7,365,860.8,382.8z"/>
					<path id="XMLID_569_" class="st41" d="M888.7,331.3c-11.1,15.6-21.1,33.7-28,51.5c6.3,5.4,11.8,11.6,16.4,18.5
						c7.9-9.2,13.8-20.5,19-31.7C893.2,356.8,890.7,344,888.7,331.3z"/>
					<g id="XMLID_537_">
						<path id="XMLID_534_" class="st67" d="M937.9,319.8c7.4-1.1,14.4-4.4,20-9.2c-8.6,3.2-18,4.5-27.2,3.8
							c-5.6-0.4-11.5-2.6-16.7,0.1c-3.7,1.9-4.4,3.7-3.5,5.4c-2.1,2.1-3.7,4.9-4.2,8.6c6.3,1.4,11.5,5.3,14.5,11
							c3,5.6,3.7,12.2,3.7,18.6c0,13.6-3.3,27.1-9.6,39.1c-1.9,3.7-4.2,7.6-3.7,11.8c0.4,3.4,2.7,6.3,4.7,9.2
							c8.5,11.9,14.2,25.8,16.6,40.2c5.4-18.1,10.8-36.1,16.2-54.2C954.1,386.1,970.8,342.3,937.9,319.8z"/>
						<path id="XMLID_462_" class="st68" d="M938.4,344.5c5.3,11.5,1.8,24.8-3.5,36.3c0-12.4,0-24.8-1.8-37.2
							c-0.9-4.4-3.5-7.1-4.4-10.6c-1.3-6.3-0.7-13-2.2-19.3c-4.2-0.7-8.4-1.3-12.4,0.7c-3.7,1.9-4.4,3.7-3.5,5.4
							c-2.1,2.1-3.7,4.9-4.2,8.6c6.3,1.4,11.5,5.3,14.5,11c3,5.6,3.7,12.2,3.7,18.6c0,13.6-3.3,27.1-9.6,39.1
							c-1.9,3.7-4.2,7.6-3.7,11.8c0.4,3.4,2.7,6.3,4.7,9.2c6.1,8.5,10.7,18,13.7,27.9C944.8,413.4,954.2,378.1,938.4,344.5z"/>
						<path id="XMLID_530_" class="st69" d="M924.6,310c0.6,2.5,0.8,5,0.5,7.6c-0.7,6.9-4.2,13.5-9.8,17.6s-13.1,5.4-19.7,3.3
							c2.2-6.7,4.6-13.3,7.2-19.9C906.6,308.6,919.3,289.7,924.6,310z"/>
						<path id="XMLID_526_" class="st40" d="M908.2,310.3c-1.6,19-7.3,37.8-17.7,53.8s-26,28.8-44.1,34.7
							c-10.5,3.4-22.6,4.3-32.2-1.2c-11.8-6.8-16.8-21.5-17.9-35.1c-1.1-13.6,0.6-27.5-2.4-40.9c-1.4-6.1-3.7-11.9-5.5-17.9
							c-3.6-11.8-5.3-24.1-5.1-36.4c0.2-9.4,1.5-18.9,5.6-27.3c4.5-9.5,12-17.4,20.4-23.8c34.3-25.8,68.1-15.4,83.5,2.3
							C912.8,241.6,910.8,280,908.2,310.3z"/>
						<path id="XMLID_522_" class="st70" d="M844.1,346.8c-8.9,0.2-17.8,2.4-25.8,6.4c-3.6,1.8-7.3,4.4-7.9,8.3
							C823.2,360.4,834.9,356,844.1,346.8z"/>
						<path id="XMLID_517_" class="st70" d="M854,358.3c-1.8,10.8-30.3,36.7-40.1,16C825.4,369.7,842.9,363.8,854,358.3z"/>
						<g id="XMLID_511_">
							<path id="XMLID_512_" class="st67" d="M850.4,256.3c0.8,20.7,14.8,40.8,33.7,49.2c1.3,9.2,2.6,18.5,4.6,27.5
								c5.7-7,12.2-13.2,19.2-19c0.1-1.2,0.3-2.5,0.4-3.7c2.6-30.4,4.5-68.7-15.4-91.8c-15.4-17.8-49.2-28.1-83.5-2.3
								c-8.4,6.3-15.9,14.3-20.4,23.8c-2.7,5.7-4.2,11.9-4.9,18.1C804.7,248.6,829.3,247.8,850.4,256.3z"/>
						</g>
						<path id="XMLID_507_" class="st42" d="M785.2,303.6c2,2.5,5.7,2.9,9,2.7c0.4,0,0.8,0,1.2,0.2c0.3,0.2,0.5,0.5,0.7,0.8
							c2.3,4.2,3.7,8.8,4.2,13.5c0.2,1.7,0.3,3.7,1.6,4.8c1.7,1.5,4.6,0.5,5.8-1.4c1.2-1.9,1.2-4.4,0.8-6.6c-0.4-2.4-1-4.7-1.7-7
							c-0.7-2.3-1.4-4.7-2.7-6.7c-2-2.9-4.7-4.1-7.9-3C794.5,301.5,786.9,305.7,785.2,303.6z"/>
						<path id="XMLID_501_" class="st40" d="M898.4,305.8c4.6-8.8,12.2-16.6,21.8-19.1c1-0.3,2-0.5,3-0.2c0.9,0.3,1.7,1,2.3,1.8
							c3.8,5,2.2,12.1-0.3,17.9c-6.9,15.8-19.8,29-35.4,36.2c0.3-0.1,1.2-14.7,1.5-16C893,319.2,895,312.2,898.4,305.8z"/>
						
							<linearGradient id="XMLID_730_" gradientUnits="userSpaceOnUse" x1="799.9032" y1="344.2607" x2="837.8972" y2="344.2607" gradientTransform="matrix(0.9955 9.514213e-002 -9.514213e-002 0.9955 22.3032 -92.3913)">
							<stop  offset="0" style="stop-color:#F56889"/>
							<stop  offset="0.3516" style="stop-color:#F68387"/>
							<stop  offset="0.7534" style="stop-color:#F79B85"/>
							<stop  offset="1" style="stop-color:#F7A484"/>
						</linearGradient>
						<path id="XMLID_500_" class="st71" d="M801,324.3c-4.9,0.8-10.4,1.4-13.8,5c-0.9,1-1.6,2.1-1.9,3.4c-0.8,4.1,3,7.7,6.8,9.3
							c6.3,2.6,13.7,2.3,19.7-0.8c6-3.1,10.6-9,12.1-15.6c0.6-2.4,0.7-5-0.1-7.3c-0.8-2.3-2.8-4.4-5.3-4.7c-4.5-0.7-4.9,3.5-7.1,6.1
							C808.9,322.5,804.6,323.7,801,324.3z"/>
						<path id="XMLID_498_" class="st7" d="M811.4,319.6c0,0-0.1,0.1-0.3,0.4c-0.2,0.2-0.5,0.6-1,1c-0.9,0.8-2.3,1.7-4.3,2.4
							c-1.9,0.7-4.3,1.2-6.7,1.6c-2.5,0.4-5.1,0.9-7.6,1.9c-1.2,0.5-2.4,1.1-3.3,2c-1,0.8-1.8,1.8-2.3,2.9c-0.1,0.3-0.2,0.5-0.3,0.8
							l-0.1,0.2l0,0.1c0,0,0,0,0,0l0,0.1l-0.1,0.5c0,0.3,0,0.6,0,0.8c0,0.3,0,0.6,0.1,0.8c0.2,1.1,0.7,2,1.3,2.8
							c1.2,1.6,2.6,2.6,3.5,3.2c0.5,0.3,0.9,0.5,1.2,0.7c0.3,0.1,0.4,0.2,0.4,0.2s-0.2-0.1-0.5-0.2c-0.3-0.1-0.7-0.3-1.2-0.6
							c-0.5-0.3-1.1-0.7-1.8-1.1c-0.7-0.5-1.4-1.1-2-1.9c-0.6-0.8-1.2-1.8-1.5-3c-0.1-0.3-0.1-0.6-0.2-0.9c0-0.3,0-0.7,0-1l0.1-0.5
							l0-0.1l0-0.1l0-0.1l0.1-0.2c0.1-0.3,0.2-0.6,0.3-0.9c0.5-1.2,1.4-2.3,2.4-3.2c1-0.9,2.3-1.6,3.5-2.1c2.6-1,5.3-1.5,7.8-1.9
							c1.2-0.2,2.5-0.4,3.6-0.6c1.1-0.2,2.2-0.5,3.1-0.8c1.9-0.6,3.4-1.4,4.3-2.1c0.5-0.3,0.8-0.6,1-0.9
							C811.3,319.7,811.4,319.6,811.4,319.6z"/>
						<path id="XMLID_493_" class="st42" d="M818.7,295.7c1.1,3.1,4.5,4.6,7.6,5.5c0.4,0.1,0.8,0.2,1,0.5c0.2,0.3,0.3,0.6,0.4,1
							c0.8,4.7,0.7,9.5-0.4,14.1c-0.4,1.7-0.9,3.6,0,5.1c1.2,1.9,4.2,2,6,0.5c1.8-1.4,2.5-3.8,2.9-6c0.4-2.4,0.5-4.8,0.6-7.2
							c0.1-2.4,0.2-4.9-0.4-7.2c-1-3.4-3.1-5.4-6.5-5.4C828.2,296.7,819.6,298.2,818.7,295.7z"/>
						<path id="XMLID_489_" class="st42" d="M822.8,273.4c7.7-1.5,16.2,1.6,21.2,7.7L822.8,273.4z"/>
						<path id="XMLID_485_" class="st42" d="M797.5,277.3c-3.2-0.7-6.8,0.2-9.3,2.4c-2.5,2.2-4,5.5-3.8,8.8
							C786.8,283.3,792.7,280.3,797.5,277.3z"/>
						<path id="XMLID_482_" class="st46" d="M843.5,345.3c2.6-0.6,5.6-0.6,7.7,1c1.3,1,2.2,2.5,2.7,4.1c2.3,7.1-2,15.1-8.2,19.3
							s-13.8,5.7-21.2,7c-2.9,0.5-6.1,1-8.6-0.5c-1.5-0.9-2.6-2.4-3.5-4c-1.4-2.4-5.4-10.2-2.8-12.4c1-0.9,4.4-0.7,5.8-1.1
							c2-0.6,3.8-1.4,5.6-2.3C828.5,352.7,835.2,347.1,843.5,345.3z"/>
						<g id="XMLID_473_">
							<path id="XMLID_477_" class="st7" d="M838.6,356c4.7-2.5,9.1-5.7,12.9-9.6c-0.1-0.1-0.2-0.1-0.3-0.2c-2.1-1.6-5.1-1.5-7.7-1
								c-8.3,1.8-15,7.5-22.5,11.1c-1.8,0.9-3.7,1.7-5.6,2.3c-0.9,0.3-2.6,0.3-4,0.5c0.8,1.8,1.5,3.6,2.3,5.4
								C822.3,362.7,830.8,360.2,838.6,356z"/>
							<path id="XMLID_474_" class="st27" d="M830.9,375.4c5.3-1.1,10.4-2.7,14.8-5.8c6.1-4.2,10.3-11.9,8.3-18.9
								C844.3,356.7,836.2,365.4,830.9,375.4z"/>
						</g>
						<path id="XMLID_469_" class="st41" d="M909.6,310.5c1.4-3.8,3.3-7.5,5.8-10.8c0.4-0.5,0.7-1,1.2-1.2c1-0.5,2.3-0.2,3,0.7
							s0.9,2.1,0.5,3.2c-0.2-1.6,0.6-3.3,0-4.8c-0.7-1.7-2.9-2.4-4.7-1.9c-1.8,0.5-3.2,1.9-4.5,3.3c-4.1,4.5-7.4,9.6-9.8,15.1
							c2-0.1,3.6,2.5,3.1,4.4c-0.5,1.9-2,3.3-3.3,4.8c-1.1,1.2-2.1,2.6-2.9,4c1.7-1.2,3.6-2.1,5.6-2.5c0.9-0.2,1.8-0.3,2.7-0.6
							c2.4-0.8,4.2-3,4.7-5.4C911.6,316,911.5,312.1,909.6,310.5z"/>
						<path id="XMLID_463_" class="st67" d="M870.1,199.7c-3.9-1.9-8.3-2.1-12.5-2.1c-22.3,0.1-44.6,7-63.1,19.3
							c-8,5.3-15.6,12-19.6,20.7c-4.1,8.7-4,19.9,2.3,27.2c-0.3-3.5-0.7-7-1-10.4c2.3,6.7,8.7,11.2,15.5,13.2c6.8,2,14,1.8,21,1.6
							c-4.9-2.1-9.3-5.5-12.4-9.9c20.7,8.5,45.7,5.6,63.9-7.4c6.8-4.9,12.7-11.2,15.8-19C883.8,222.7,881.1,205,870.1,199.7z"/>
						<path id="XMLID_458_" class="st67" d="M898.8,216c6.3,8.2,8,18.9,8.6,29.2c0.8,13.7-0.1,27.6-2.6,41.1
							c-5.3-20.4-14.5-39.5-24.6-58c-3.1-5.8-13.8-18-3.6-21.8C884.2,203.7,894.5,210.4,898.8,216z"/>
						<path id="XMLID_341_" class="st72" d="M857.2,258.1c1,1.6,2.1,3.3,3.1,4.9c0.3,0.5,0.7,1,1.2,1.1c0.7,0.1,1.2-0.7,1.8-1.2
							c1.3-1.2,3.3-1.1,5-1.1c8.9,0.3,17.8-1.5,25.8-5.3c3-1.4,6.1-3.4,6.7-6.7c0.1-0.7,0.4-1.6,1.1-1.5c0.4,0.1,0.7,0.5,0.8,0.9
							c1.8,5.3,2.7,11,2.5,16.6c-0.6-2.6-1.7-5-3-7.3c-1.6,1.6-2.4,3.9-3.8,5.6c-1.7,2.1-4.1,3.4-6.6,4.5c-4.7,2.1-9.7,3.6-14.8,4.5
							c-2.2,0.4-4.5,0.6-6.5-0.3c-1.4-0.6-2.5-1.7-4-1.9s-3.2,1.6-2.2,2.7c-1.4-1-2.3-2.6-2.7-4.3c0.3,4.5,1.4,9,3.3,13.2
							c-2.6-3.3-5.6-7.6-7-11.5C856.8,268.1,858.5,260.1,857.2,258.1z"/>
						<path id="XMLID_110_" class="st72" d="M786.8,230.9c-0.2,2.7-0.4,5.3-0.6,8c1.5-0.6,2.9-1.3,4.4-1.9c1,2.5,4.2,3.2,7,3.4
							c15.5,1.1,31.3-2,45.3-8.8c1.8-0.9,3.7-1.8,5.6-1.4c1.9,0.5,3.2,3.1,1.8,4.4c4.1-2.2,8.2-4.4,12.2-6.8
							c-1.6,8.1-4,17.3-11.4,20.9c1.6-1.9-0.2-5.4-2.6-5.3c-1,0-2,0.6-2.9,1c-2.6,1.2-5.5,1.5-8.4,1.9c-12.5,1.5-25,3-37.6,2.8
							c-2.5,0-5-0.2-7.3-1.2c-1.9-0.9-3.5-2.3-5.5-2.9c-2-0.6-4.7,0.1-5.1,2.2c0.3-1.7-0.7-4.7-1.1-6.3c-0.7,0.8-1.8,1.9-2.5,2.7
							C779.4,238.9,783,234.3,786.8,230.9z"/>
						<path id="XMLID_103_" class="st73" d="M854.5,320.3c1.9,0.1,4.2,0.8,4.6,2.7c0.3,1.6-1,3-2.3,4c-6.4,4.9-14.4,7-22.4,8.4
							c-10.4,1.9-8.7-7.5-1.3-10.9C839.2,321.8,848,319.9,854.5,320.3z"/>
						<path id="XMLID_102_" class="st7" d="M835.9,305.8c-0.1-0.6-0.4-1.1-0.7-1.6c-0.3-0.4-0.9-0.5-1.4-0.3
							c-0.5,0.2-0.7,0.7-0.7,1.3c0.1,0.5,0.2,0.9,0.4,1.4c0.3,0.5,0.9,0.9,1.5,0.6C835.6,307,836,306.4,835.9,305.8z"/>
						<path id="XMLID_101_" class="st7" d="M804.9,310.9c-0.1-0.3-0.2-0.6-0.3-0.9c-0.1-0.1-0.1-0.2-0.2-0.4
							c-0.1-0.1-0.3-0.2-0.3-0.4c-0.3-0.6-1.1-0.3-1.1,0.3c-0.2,0.5-0.1,1.2,0,1.7c0.1,0.5,0.6,0.9,1.1,0.8
							C804.6,312,805,311.4,804.9,310.9z"/>
					</g>
					<path id="XMLID_386_" class="st63" d="M988,715.6c-26.5-0.7-118.4,1.4-121.4-9.6c-9.3-35.5,11-139.9,12.3-153.4
						c2.1-20.8,4.2-41.6,7.3-62.3c4.7-30.9,9.4-58.8,18.6-88.6c25.7,33.2,40.6,73.8,44.7,115.7c4,41.8,0.2,84-3.6,125.8
						C965.8,662.6,975.7,690.5,988,715.6z"/>
					<path id="XMLID_560_" class="st7" d="M866.6,705.9c0,0-0.3-1.2-0.8-3.4c-0.2-1.1-0.4-2.5-0.7-4.1c-0.2-1.6-0.5-3.5-0.6-5.6
						c-0.4-4.2-0.6-9.3-0.6-15.2c0-5.9,0.2-12.5,0.7-19.7c0.9-14.4,2.6-31.2,5.1-49.1c1.2-8.9,2.6-18.2,4-27.5
						c0.7-4.7,1.5-9.4,2.2-14.1c0.7-4.7,1.5-9.5,2.1-14.2c1-9.6,2-19.1,3-28.6c1.1-9.4,2.2-18.7,3.5-27.6c1.3-8.9,2.7-17.5,4.1-25.7
						c1.4-8.2,2.8-15.9,4.2-22.9c1.4-7.1,2.9-13.5,4.3-19.2c1.4-5.7,2.7-10.6,3.9-14.7c1.1-4.1,2.1-7.2,2.8-9.4c0.7-2.2,1-3.3,1-3.3
						s-0.3,1.2-0.9,3.3c-0.6,2.2-1.5,5.4-2.6,9.4c-1.1,4.1-2.3,9-3.6,14.7c-1.3,5.7-2.6,12.2-4,19.3c-1.3,7.1-2.7,14.8-3.9,23
						c-1.3,8.2-2.6,16.8-3.8,25.7c-1.2,8.9-2.3,18.2-3.3,27.6c-1,9.4-1.9,19-2.9,28.6c-0.6,4.8-1.4,9.5-2.2,14.3
						c-0.8,4.7-1.5,9.4-2.3,14.1c-1.5,9.4-2.9,18.6-4.2,27.5c-1.2,8.9-2.4,17.6-3.3,25.8c-1,8.2-1.7,16-2.3,23.2
						c-0.5,7.2-0.9,13.8-1,19.6c-0.1,5.9,0,11,0.3,15.2c0,1.1,0.1,2,0.2,3c0.1,0.9,0.2,1.8,0.3,2.6c0.2,1.6,0.4,3,0.6,4.1
						C866.4,704.7,866.6,705.9,866.6,705.9z"/>
					<path id="XMLID_920_" class="st64" d="M947.4,626c-25.8,12.2-53.6,20.8-81.8,24.9c-1.1,13.4-1.7,26.3-1.2,37
						c34.6,3.5,71.4,0,102.8-15.6c-5.9-10.7-12.6-20.8-21.3-29.3C946.4,637.3,946.9,631.7,947.4,626z"/>
					<path id="XMLID_672_" class="st40" d="M799.9,654.6c-8.5-0.2-16.9-0.4-25.4-0.6c-7.6-9.1-14.7-19-21.9-28.4
						c-0.7-0.9-1.6-1.9-2.7-1.9c-1.2,0-2.1,1.2-2.5,2.3c-1.2,3.4-0.2,7.2,1.5,10.4s3.8,6.2,4.9,9.6c0.4,1.3,0.6,2.8-0.1,4
						c-1.3,2-4.4,1.4-6.7,0.4c-9-4-17.4-9.7-24.4-16.6c-0.8-0.8-1.8-1.7-3-1.6c-1.5,0.1-2.3,1.8-2.1,3.3s1.2,2.6,2.2,3.7
						c5.2,5.8,11,11.1,17.3,15.8c-7.3,0.3-13.7-4.6-20.1-8.2c-1.4-0.8-3.3-1.5-4.4-0.4c-0.6,0.6-0.7,1.5-0.6,2.3
						c0.4,3,3.3,4.8,6,6.3c5.3,3,10.7,5.9,16,8.9c-6.9,0.3-13.9-0.8-20.3-3.2c-0.8,1.3-0.3,3.1,0.7,4.2c1,1.1,2.5,1.7,4,2.2
						c5.6,2,11.4,3.3,17.3,4.1c-5.6,0.6-11.3,1.1-16.9,1.7c-0.6,1.3,1.1,2.5,2.5,3c12.9,4.1,27.2,3.8,40-0.8c3.5-1.3,7-2.9,10.6-3.6
						c3.2-0.6,6.5-0.6,9.8-0.6c7.8,0.1,15.6,0.2,23.5,0.2c-0.4-3.9-1.1-7.9-2-11.7C802.5,657.3,801.8,654.7,799.9,654.6z"/>
					<path id="XMLID_387_" class="st63" d="M794.2,684.6c-2.1-12.3-2.4-22.9-2.9-35.4c30.9-3.4,61.6-13.1,87.9-29.7
						c17.5-49.6,18.9-103.5,32.7-154.2c1.6-5.7,3.6-11.7,8.4-15.2c3.8-2.7,7.9,2.1,10.8,5.8c10.2,12.9,13.2,29.9,15.8,46.1
						c4.1,25.1,8.1,50.2,12.2,75.2c2.3,14.2,4.6,28.5,3.7,42.8c-0.9,14.3-5.2,28.9-14.7,39.6c-15.3,17.3-40.4,21.3-63.5,23
						C855.1,684.7,823.8,686.8,794.2,684.6z"/>
					<path id="XMLID_609_" class="st42" d="M797.9,919.2c0,0-13.6,10.9-22.5,28.6c0,0,13.1-4.8,22.5-18.4l5,12.2
						C802.8,941.6,807.6,931.8,797.9,919.2z"/>
					<path id="XMLID_611_" class="st42" d="M695.2,877.3c0,0-13.6,10.9-22.5,28.6c0,0,13.1-4.8,22.5-18.4l5,12.2
						C700.2,899.8,704.9,890,695.2,877.3z"/>
					<g id="XMLID_662_">
						<path id="XMLID_659_" class="st40" d="M713.9,513.5c-2-1.1-4.5-2.2-6.5-1.1c-1.8,1-2.3,3.4-2.3,5.5c0.1,9,5.9,17,12.7,22.9
							c1.9,1.7,4,3.3,6.4,4.1c2.4,0.9,5.2,0.9,7.4-0.5c-1.2-5.2-2.3-10.4-3.5-15.6C726.3,521.2,720.6,517.2,713.9,513.5z"/>
						<path id="XMLID_656_" class="st41" d="M711.5,516c-0.3-0.3-0.7-0.6-1.2-0.6c-0.9,0-1.4,1.1-1.6,2c-0.2,1.4-0.3,2.9-0.2,4.3
							c0.1-1.1,0.8-2.1,1.8-2.7c0.4-0.2,0.9-0.3,1.3-0.1c0.3,0.1,0.5,0.4,0.7,0.6c0.9,1.2,1.9,2.4,2.8,3.6c0.2,0.3,0.4,0.6,0.5,0.9
							c0,0.4-0.2,0.8-0.3,1.1c-1.1,1.9-2.1,4.3-1,6.1c0.6,1.1,1.8,1.7,3,2.2c1.9,0.8,3.8,1.6,5.7,2.2c-1.6-0.8-2.9-2-3.8-3.5
							c-2.2-3.5,3.5-2.6,1.8-6.5C719.3,522.1,714.4,518.5,711.5,516z"/>
						<path id="XMLID_653_" class="st41" d="M763.3,564.8c-10.9,0.1-21.7-5.5-27.8-14.5c1.1,1.6,15.7,0.2,18,0.2
							c6.2-0.1,12.5-0.2,18.7-0.5c3.3-0.2,13.2-2.6,15.3,0.3c2.8,3.8-4.6,8.1-7.1,9.6C775.3,563,769.3,564.8,763.3,564.8z"/>
						<path id="XMLID_650_" class="st40" d="M756,423c-4.6,0.9-9.2,2.4-13.2,4.8c-13.5,8.1-18.9,25.3-18.3,41
							c0.5,13.6,4.7,27.6,0.6,40.6c-1.8,5.8-5.1,11-6.4,17c-1.1,5.5-0.4,11.3,2.2,16.3c6.1,12,20.9,17,34.4,17.6
							c11.2,0.5,22.6-1.4,32.5-6.5c13.8-7.1,23.9-20,30.1-34.3c8-18.6,9.6-39.7,4.7-59.3c-4.5-18-18-29.5-35.6-35.1
							C777,421.7,766.3,420.9,756,423z"/>
						<path id="XMLID_201_" class="st67" d="M795.8,437.4c-5.1,17.4-6.5,36-4.1,54c1.4,10.2,4.8,21.4,13.9,26.2
							c-4.6,9.1-7.8,18.3-8.1,28.4c28.3-11.3,48.1-41.5,46.9-72c-0.4-9.2-2.5-18.6-7.8-26.2c-5.3-7.6-14-13.1-23.3-13
							C807.8,435,801.2,436.7,795.8,437.4z"/>
						<path id="XMLID_642_" class="st40" d="M829.7,505.7c1.5-0.4,3.1-0.8,4.5-0.3c1.4,0.5,2.4,1.7,3.2,2.9
							c3.6,6.1,1.5,13.8-0.7,20.6c-0.9,2.9-2,6-4,8.2c-2.7,2.9-6.8,4.1-10.7,4.9c-6.6,1.4-13.3,2.1-20,2.1c-2.6,0-6-0.6-6.5-3.2
							c-0.2-1.1,0.1-2.2,0.5-3.2C801.4,523.9,815.3,509.8,829.7,505.7z"/>
						<path id="XMLID_639_" class="st42" d="M762.8,467.1c5.6,1.7,11.4,4.5,15.9,8.2c0.8-1.5,1.1-3.5,1.9-5
							c-3.8-4.5-8.9-7.8-14.5-9.4c-0.7,1.4-1.4,2.7-2.1,4.1c0.1-1.8,0.2-3.6,0.3-5.4C763.2,461.5,762.8,464.7,762.8,467.1z"/>
						<path id="XMLID_636_" class="st42" d="M728.3,470.4c-0.6-1.7-1.2-3.2-1.5-5c0-0.2,0.1-0.5,0.3-0.7c1.4-1.6,3.2-2.9,5.1-3.9
							c0.6-0.3,1.4-0.7,2.1-0.8c0.7,1.5,1.4,3,2.1,4.6c-0.2-1.6-0.2-3.4-0.4-5c0.7,2.4,1.3,4.9,1.7,7.5
							C734.5,467.5,731,468.4,728.3,470.4z"/>
						
							<ellipse id="XMLID_632_" transform="matrix(-0.9871 -0.1604 0.1604 -0.9871 1436.9044 1118.0244)" class="st42" cx="763.6" cy="501" rx="4.1" ry="9.2"/>
						
							<ellipse id="XMLID_628_" transform="matrix(-0.9796 0.2008 -0.2008 -0.9796 1552.6798 843.5352)" class="st42" cx="733.6" cy="500.5" rx="3.3" ry="7.3"/>
						
							<linearGradient id="XMLID_731_" gradientUnits="userSpaceOnUse" x1="1347.764" y1="491.5602" x2="1369.5012" y2="494.2458" gradientTransform="matrix(-0.9773 0.2118 0.2118 0.9773 1963.7991 -256.6835)">
							<stop  offset="0" style="stop-color:#F7A484"/>
							<stop  offset="0.2466" style="stop-color:#F79B85"/>
							<stop  offset="0.6484" style="stop-color:#F68387"/>
							<stop  offset="1" style="stop-color:#F56889"/>
						</linearGradient>
						<path id="XMLID_626_" class="st74" d="M730.6,508.1c-1.7,1.8-1.9,4.7-0.7,6.9c1.2,2.2,3.3,3.7,5.7,4.5c2.5,0.9,5.3,1.2,8,0.7
							c1.2-0.2,2.3-0.6,3.3-1.2c1.8-1.1,2.9-3,3.4-5c0.8-3.4,0.5-13-5-11.4c-2.3,0.7-4.1,2.5-6.6,3
							C736.1,506.3,732.8,506,730.6,508.1z"/>
						<path id="XMLID_625_" class="st7" d="M745.4,502.7c0,0-0.1,0-0.3,0.1c-0.2,0-0.4,0.1-0.7,0.2c-0.6,0.2-1.5,0.6-2.4,1.1
							c-1,0.5-2.1,1.1-3.4,1.3c-0.7,0.1-1.3,0.2-2.1,0.3c-0.7,0.1-1.4,0.2-2.2,0.3c-0.7,0.1-1.5,0.3-2.2,0.7
							c-0.7,0.3-1.3,0.8-1.8,1.3c-0.1,0.2-0.2,0.3-0.3,0.4c-0.1,0.2-0.2,0.3-0.3,0.5c-0.2,0.3-0.3,0.6-0.4,0.9
							c-0.2,0.6-0.3,1.2-0.3,1.8c0,1.1,0.3,2.1,0.5,2.6c0.1,0.3,0.2,0.5,0.3,0.7c0.1,0.1,0.1,0.2,0.1,0.2s-0.1-0.3-0.3-0.9
							c-0.2-0.6-0.3-1.5-0.2-2.6c0.1-0.5,0.2-1.1,0.4-1.6c0.1-0.3,0.3-0.5,0.4-0.8c0.1-0.1,0.2-0.2,0.3-0.4c0.1-0.1,0.2-0.3,0.3-0.4
							c0.9-0.9,2.2-1.4,3.6-1.6c0.7-0.1,1.4-0.2,2.1-0.3c0.7-0.1,1.4-0.2,2.1-0.4c1.4-0.3,2.5-1.1,3.5-1.6c0.9-0.6,1.7-1.1,2.2-1.4
							C745,502.8,745.4,502.7,745.4,502.7z"/>
						<path id="XMLID_621_" class="st46" d="M748.9,525.9c4.7,0,9.3-0.7,13.9-0.5c2.2,0.1,4.7,0.5,5.7,2.4c0.9,1.6,0.2,3.7-1,5
							c-1.3,1.3-3,2-4.7,2.6c-4.8,1.6-9.9,2.7-14.9,1.9c-4.8-0.7-12.8-4.4-13.3-10.1c-0.3-3,2.3-3.2,4.6-2.7
							C742.5,525.2,745.5,526,748.9,525.9z"/>
						<g id="XMLID_203_">
							<path id="XMLID_204_" class="st27" d="M768.9,530.1c-0.2,1-0.6,1.9-1.3,2.7c-1.3,1.3-3,2-4.7,2.6c-4.8,1.7-9.9,2.7-14.9,1.9
								c-2.3-0.3-5.3-1.4-7.9-3C748.6,529,758.9,527.5,768.9,530.1z"/>
						</g>
						<path id="XMLID_202_" class="st7" d="M761,498.4c0.1-0.2,0.1-0.4,0.2-0.6c0.3-0.9,1.4-0.5,1.5,0.3c0,0.2,0,0.4,0,0.6
							c0,0.3-0.2,0.6-0.5,0.7c0,0-0.1,0-0.1,0c-0.3,0.2-0.7,0.1-0.9-0.2c0,0,0,0-0.1-0.1C761,499,760.9,498.7,761,498.4z"/>
						<path id="XMLID_148_" class="st41" d="M826.9,512.6c1.1-0.3,2.3-0.5,3.4-0.2c1.1,0.4,1.9,1.3,2.4,2.3c1.1,2.2,1.2,5,0,7.2
							c-0.4-1.8-0.9-3.6-1.3-5.4c-0.1-0.4-0.2-0.9-0.6-1.1c-0.4-0.3-0.9-0.2-1.4-0.1c-3.5,0.7-6.8,2.5-9.4,5
							c1.8,0.8,3.6,1.9,4.9,3.5c1.2,1.6,1.8,3.7,1.2,5.7c-0.7-3.3-5.2-5.2-8-3.3c1.1,2.4,1.9,5.1,1.5,7.8c-0.4,2.6-2.3,5.2-5,5.6
							c-2.2,0.3-4.3-0.8-6.2-2c-2.3-1.5-4.7-4-3.9-6.6c2.1,1.4,4.8,2,7.2,1.2c2.4-0.8,4.4-3.1,4.3-5.6c0-2.2-1.7-4-3.6-4.9
							C815.2,517.1,821.9,514,826.9,512.6z"/>
						<path id="XMLID_145_" class="st7" d="M731.4,496.2c0.8-0.2,1.1,1.1,0.3,1.2C730.9,497.6,730.6,496.4,731.4,496.2z"/>
						<path id="XMLID_199_" class="st67" d="M773.1,445.3c-11.1,0.1-22.4-0.3-33.1,3c-10.6,3.3-20.6,11.2-22.8,22.1
							c-2.5-9.5-5.3-18.8-2.6-28.2c3.1-10.9,11.7-19.7,21.8-24.9c10.1-5.2,21.6-7.1,32.9-7.7c10.6-0.6,21.4,0,31.6,3
							c8.8,2.5,17.9,7.9,20.1,16.8c0.4,1.8,0.5,3.6-0.3,5.3C814.8,448.1,784.2,445.1,773.1,445.3z"/>
						<path id="XMLID_205_" class="st72" d="M735.9,421c-1.7,3.3-3.3,6.6-5,10c4.1-2.5,9.2-5.1,13.6-3c1.5,0.7,2.6,1.9,3.9,2.9
							c7.2,5.6,17.3,4.9,26.2,3c4.8-1,9.7-2.4,14.6-1.8c4.2,0.5,8.2,2.4,12.4,2.8c4.2,0.4,9.3-1.3,10.4-5.4c0.5-1.9,0.1-4-1.1-5.5
							c4.7,2.1,7.4,7.9,5.8,12.8c-2-2.5-5.9-0.6-8.6,1c-3.6,2-7.6,3.2-11.7,3.5c-1.4,0.1-2.9,0.1-4.3-0.3c-1.2-0.3-2.2-0.9-3.4-1.3
							c-4.2-1.5-8.8-0.7-13.1,0.1c-10.3,1.7-20.6,2.9-31,3.5c-2.5,0.2-5.5,0-6.8-2.2c-1.2-2.1-0.4-5.5-2.7-6.4
							c-2.1-0.8-3.8,1.8-5.9,2.4c-3.9,1.2-6-3.5-3.6-6.2c-1.3,0.8-2.5,1.9-3.6,2.9C723.8,428,730.8,423.4,735.9,421z"/>
						<path id="XMLID_619_" class="st72" d="M801.3,469.8c0.1,0.4,0.3,0.8,0.6,1.1c0.6,0.6,1.7,0.3,2.3-0.2c0.7-0.5,1.2-1.2,2-1.6
							c1.3-0.6,2.9,0,4.1,0.8c1.2,0.8,2.2,1.9,3.5,2.5c1.1,0.5,2.3,0.5,3.6,0.6c3.2,0.2,6.6,0.3,9.6-0.9c3-1.2,5.5-4.2,5.1-7.4
							c1.6-0.5,3.5,0.2,4.4,1.7c0-2.8,0.1-5.6,0.1-8.3c4.2,8,5.2,17.6,2.9,26.4c-0.6-2.8-1.6-5.4-3-7.9c-0.6,0.8-0.5,1.8-0.8,2.8
							s-1.1,1.9-2,1.6c-0.5-0.2-0.7-0.6-1.1-0.9c-1.5-1.1-3.4,0.8-4.6,2.3c-2.7,3.2-7.1,4.8-11.3,4.3c-4.1-0.4-8.9-6.3-12.5-4.1
							c-5.3-8.2-9-11.7-4.5-21.5C799.9,463.9,800.3,466.9,801.3,469.8z"/>
					</g>
					<path id="XMLID_631_" class="st40" d="M797.5,595.8c-2.8,2.1-6.8,2.4-9.8,0.8c-2.5-1.3-5.4-3.7-7.7-2c-1.1,0.8-1.4,2.3-2.2,3.4
						c-0.8,1.1-2.7,1.8-3.4,0.6c-0.3-0.5-0.2-1.2-0.1-1.8c0.5-2.9,1.5-5.7,2.9-8.3c-3.3,0.9-5.6,5.5-8.8,4.3
						c-2.5-0.9-2.4-4.6-1.1-6.9c1.2-2.2,3.2-4.1,5.5-5.2c-4.6-1-8.6,3.9-13.2,3.7c-1-0.1-1.9-0.4-2.6-1.1c-1.5-1.7,0-4.5,1.7-6
						c3.1-2.7,7.1-4.2,11.2-4.3c-4.5-1.2-9.5-0.4-13.5,2.2c-1.4,0.9-3.1,2-4.5,1.1c-0.9-0.7-1-2-0.5-3c0.5-1,1.4-1.7,2.4-2.3
						c6.8-4.7,15.7-7.6,23.1-4.1c7.5,3.6,14.7,9.7,20.5,15.7c2.9,3,5.6,6.2,7.4,9.9c0.5,1,0.9,2,0.6,3.1c-0.4,1.4-2,2.1-3.4,2
						S798.7,596.5,797.5,595.8z"/>
					<path id="XMLID_640_" class="st60" d="M796.2,601c3.5-7,3.5-15.6,0-22.6c17-0.6,32.9,1.2,49.4,5.4c4.6,1.2,9.2,2.5,13.1,5.1
						c3.9,2.6,7.2,6.6,7.9,11.2c0.5,3.2-0.3,6.6-1.6,9.6c-3,6.9-8.9,12.4-16,14.9c-9.6,3.4-20.5,1.3-29.6-3.5S803.6,608.1,796.2,601
						z"/>
					<path id="XMLID_680_" class="st42" d="M731.2,765.3c0,0-9.4,5.9-8.1,16c0,0,12.1,1.7,15.1-17.7L731.2,765.3z"/>
					<g id="XMLID_885_">
						<path id="XMLID_916_" class="st75" d="M920.3,450.1c-4.8,3.4-6.8,9.5-8.4,15.2c-13.9,50.8-15.2,104.6-32.7,154.2
							c-25.7,16.2-55.6,25.9-85.8,29.5c36.7,4.8,75.1-4.6,105.2-26.1c12.8,2.1,26.1,7.4,38,12.7c-10.2-10.8-24.5-17.6-39.3-18.6
							c15.3-4.8,31.4-6.9,47.5-6.3c-12.3-7.3-27-10.5-41.2-9c-3.3-32.7-1.1-66,6.6-97.9c3.5-14.6,8.3-29.3,17.7-41.1
							c1.4-1.8,2.9-3.5,4.6-5.1c-0.4-0.6-0.8-1.1-1.2-1.7C928.3,452.2,924.2,447.4,920.3,450.1z"/>
					</g>
				</g>
				<g id="XMLID_112_">
					<path id="XMLID_444_" class="st25" d="M932.1,887.4c4.5,8,8.1,16.6,10.5,25.5c-14.3,8.3-30.5,17.2-46.6,20.8
						c-4.5,1-9.2,1.7-13.5,3.5c-4.3,1.8-8.2,5.2-9.5,9.7c-0.3,1-0.4,2-0.2,2.9c0.7,3.5,4.8,4.8,8.3,5.3c26.5,3.8,53.6-7.5,73.3-25.7
						c0.7,2.4,2.2,5.4,2.9,7.8l12.1-3.3c-0.4-5.1-0.8-8.1-3-12.7c-2.2-4.6-6.5-8.6-11.6-8.7c0.1-9.6-3.1-19.2-6.7-28.1
						C942.2,883.3,937.6,885.4,932.1,887.4z"/>
					<path id="XMLID_446_" class="st25" d="M1011.5,925.4c5.7,7.2,10.5,15.2,14.3,23.6c-12.8,10.4-27.5,21.7-42.8,27.8
						c-4.3,1.7-8.9,3.1-12.8,5.6c-3.9,2.5-7.3,6.4-7.8,11c-0.1,1-0.1,2,0.3,2.9c1.2,3.3,5.5,4,9,4c26.8-0.4,51.8-15.8,68.4-36.8
						c1.1,2.3,3,5,4,7.2l11.4-5.2c-1.2-5-2.1-7.8-4.9-12.1c-2.9-4.2-7.8-7.4-12.9-6.8c-1.4-9.5-6.1-18.5-11-26.7
						C1020.9,919.8,1016.7,922.6,1011.5,925.4z"/>
					<path id="XMLID_414_" class="st76" d="M1019.3,679.8c-43.3,14.1-82.5,40.7-111.9,75.5c-8.8,10.4-13,23.9-11.8,37.4
						c3.2,35.1,13.9,70.3,31,100.6c9.7,1.3,20.7,2,30.1-0.8c-3.2-18-7.7-38.7-9.6-56.9c-0.9-8.5-1.6-17.2-0.1-25.6
						c2.3-12.5,9.6-23.5,18.6-32.5c9-8.9,19.7-15.9,30.3-22.8c22.4-14.7,44.9-29.3,67.3-44c2.7-1.8,5.5-3.7,6.6-6.7
						c1.1-3,0.1-6.4-1.3-9.3c-4-8.2-11.7-14.7-20.5-17.2C1039.2,675,1028.1,677,1019.3,679.8z"/>
					<path id="XMLID_597_" class="st77" d="M1068.6,694.8c-4-8.2-11.7-14.7-20.5-17.2c-8.8-2.5-20-0.6-28.7,2.2
						c-11.6,3.8-23,8.5-33.9,14c1.7,12.8,5.2,25.1,11.4,36.9c0.9,2.7,1.8,5.3,0,6.2c-20.4,8.9-39,22.1-47.8,39.9
						c-16.7,37.2-7.4,77,0.7,117.2c2.4-0.3,4.8-0.8,7.1-1.5c-3.2-18-7.7-38.7-9.6-56.9c-0.9-8.5-1.6-17.2-0.1-25.6
						c2.3-12.5,9.6-23.5,18.6-32.5c9-8.9,19.7-15.9,30.3-22.8c22.4-14.7,44.9-29.3,67.3-44c2.7-1.8,5.5-3.7,6.6-6.7
						C1071,701,1070,697.7,1068.6,694.8z"/>
					<path id="XMLID_442_" class="st76" d="M1004.4,742.3c0,0-64.3,48.4-51.3,92.7c13,44.3,59.1,106.3,59.1,106.3l27.8-8.9
						c0,0-43.7-78-17.7-101c26-23,129.3-55.5,129.9-109.8c0.6-54.3-43.7-37.2-43.7-37.2L1004.4,742.3z"/>
					<path id="XMLID_549_" class="st77" d="M1022.2,831.4c26-23,129.3-55.5,129.9-109.8c0.6-54.3-43.7-37.2-43.7-37.2l-99.8,55.5
						c25.9,13.7,53.7,20,86.5,21.8c-17.7,29.2-54,36.3-81.5,56.7c-19.5,15.1-18.6,41.6-8.9,60.2c9.4,18.4,19.5,37,27.7,56.1l7.4-2.4
						C1039.9,932.4,996.2,854.4,1022.2,831.4z"/>
					<path id="XMLID_105_" class="st37" d="M1019,479.1c-6.5,18.8-12,38.6-24.2,54.3c17.5,1.8,35,3.5,52.5,5.3
						c1.6,0.2,12.7-78.6,13.7-85.8c0.9-6.2,7.3-24.3-1.9-25.7c-7.3-1.1-16.9,8.7-20.9,13.6C1029.1,451.8,1023.6,465.7,1019,479.1z"
						/>
					<path id="XMLID_383_" class="st36" d="M1161.5,734.1c-3.6,1.5-15.4,3-15.4,2.9c-0.4-9.8-1.7-20.4-2.1-30.1
						c-2,9.5-5.8,17.6-13.8,22.2c-7.9,4.5-17.4,5.7-26.5,5.8c-20.7,0.1-41.1-5-60.9-10.8c-3.7-1.1-7.4-2.1-11-3.2
						c-20.2-5.8-32.3-26.4-27.5-46.9c14.1-60.3,19.1-122.6,25.8-184.3c2.5-23.4,6.5-49.1,24.4-64.4c4.6-4,12.4-8.3,15.9-13.3
						c18,4.7,35.9,10.6,53.9,15.2c3.6,0.9,7.4,1.9,10.5,4c5.6,3.6,8.3,10,11.1,16c41.3,87.9,24.8,234,16.5,286.5
						C1162.4,733.8,1161.9,733.9,1161.5,734.1z"/>
					<g id="XMLID_459_">
						<path id="XMLID_555_" class="st78" d="M1145.9,447.1c-0.7-1.4-1.3-2.9-2-4.3c-23.6,19.2-33.7,52.5-37.4,83.6
							c-4.2,35.1-3,72-17.9,104.1c-5.7,12.2-13.5,23.3-22,33.7c-14.8,18-32.6,34.2-52.8,45.6c4.7,5.1,10.9,9.1,18.1,11.1
							c3.6,1,7.3,2.1,11,3.2c19.9,5.8,40.2,11,60.9,10.8c9.2-0.1,18.6-1.3,26.5-5.8c7.9-4.5,11.8-12.7,13.8-22.2
							c0.4,9.8,1.7,20.4,2.1,30.1c0,0.2,11.8-1.3,15.4-2.9c0.4-0.2,0.9-0.3,0.9-0.5C1170.8,681.1,1187.3,535,1145.9,447.1z"/>
					</g>
					<path id="XMLID_381_" class="st37" d="M1067,456.6c-0.7,22.4-0.7,46.4,0.3,68.8c-3.8,0.7-8.2,0.3-12.1-0.2
						c-1.7-21.7-2.2-43.4-1.5-65.1C1058.1,457.2,1061.9,457.5,1067,456.6z"/>
					<path id="XMLID_380_" class="st37" d="M1086.3,452.6c-3.4,4.2-7.5,7.9-12.1,10.7c-3.4,2-7.1,3.7-11,4s-8.1-0.6-11.1-3.2
						c-1.8-1.6-3.1-3.8-4.3-5.9c-1.4-2.4-2.8-5.1-2.2-7.8c7.2-4.7,14.3-9.3,22.2-12.7c3.2-1.4,6.5-2.6,10-2.9c1-0.1,2-0.1,2.8,0.5
						c0.7,0.5,1,1.2,1.4,2c0.8,1.8,1.6,3.5,2.4,5.3c0.8,1.8,1.7,3.6,1.8,5.5C1086.2,449,1086.9,451.9,1086.3,452.6z"/>
					<path id="XMLID_376_" class="st37" d="M1102.2,418.1c-0.6,21.4-3.7,42.7-8.9,63.4c-1.8-7-3.5-13.9-5.3-20.9
						c-5.6,0.1-11.6,4.2-16.1,1c-1.7-1.2-2.7-3.3-4-5c-1.3-1.7-3.4-3.2-5.5-2.5c3.4-14.8,8.8-31.8,13.8-46.1
						C1083.9,411.9,1093.7,416,1102.2,418.1z"/>
					<polygon id="XMLID_377_" class="st78" points="1040.7,452.4 1040.7,469 1053.1,447.7 					"/>
					<path id="XMLID_374_" class="st37" d="M1060.2,456.5c-3.5,0.9-7.1,1.9-10.8,1.6c-3.6-0.4-7.3-2.3-8.7-5.7
						c6.5-10,13.1-22,17.6-33.1C1057.4,431.3,1059.2,444.6,1060.2,456.5z"/>
					<path id="XMLID_373_" class="st40" d="M1045.4,395.6c9.1-9.3,21.1-19.2,31.9-26.5c1.3,18.5,4.9,35.3,9.1,53.4
						c3.2,13.9-9.9,26.4-22.2,33.6c-2.8,1.6-6.5,3.9-9.1,2C1045.4,451.3,1053,413.4,1045.4,395.6z"/>
					<path id="XMLID_542_" class="st41" d="M1081,397.4c-1.7-9.3-3.1-18.5-3.7-28.3c-10.8,7.3-22.8,17.2-31.9,26.5
						c3.5,8.2,3.8,20.6,4,32.3C1061.8,419.7,1073,409.6,1081,397.4z"/>
					<path id="XMLID_443_" class="st40" d="M1167.7,525.7l-47.4,16.9c0.3,29.9-0.5,59.9-2.6,89.7c-36.9,37.5-85.7,65.1-113.3,109.9
						c23.3-7.2,47.7-15.7,71-22.9c25.6-8,51.3-16,75-28.5c9.8-5.2,19.7-11.5,25.2-21.2c4.4-7.7,5.6-16.9,6.3-25.8
						C1184.6,605.3,1179,570.4,1167.7,525.7z"/>
					<path id="XMLID_594_" class="st79" d="M1167.7,525.7l-47.4,16.9c0.1,7.7,0.1,15.4,0,23c16,0.1,30.9,5.8,46.5,7.4
						c0,30.1,5.3,65.5-16.8,86.8c-33.9,32.3-73.7,53.7-115.2,72.6c13.6-4.5,27.3-9,40.6-13.1c25.6-8,51.3-16,75-28.5
						c9.8-5.2,19.7-11.5,25.2-21.2c4.4-7.7,5.6-16.9,6.3-25.8C1184.6,605.3,1179,570.4,1167.7,525.7z"/>
					<path id="XMLID_384_" class="st37" d="M1178.7,559.2c-21.3-0.9-43.9-2.1-65.2-1.7c-1.7-38.7-0.1-77.5,4.9-115.8
						c0.9-7.1,10.8-9.5,16.6-7.5c8.4,2.9,12.8,14.3,16.1,21.8c7.5,16.9,13.9,34.3,19,52.1C1171.4,512.6,1180.7,559.2,1178.7,559.2z"
						/>
					<g id="XMLID_430_">
						<path id="XMLID_426_" class="st40" d="M945.6,288.5c-3-2.6-7.6-4.9-10.7-2.4c-2,1.7-2.3,4.6-2.4,7.3
							c-0.1,22.1,7.9,44.1,22.3,60.9C962,332.9,963.8,304.7,945.6,288.5z"/>
						<path id="XMLID_421_" class="st41" d="M941.2,297.2c2,1.2,3.5,3.1,4.8,5c4.6,6.4,8.6,13.4,11.7,20.7
							c-1.8,4.3-3.1,9.8,0.1,13.3c2.3,2.5,6.3,3.2,7.7,6.3c-5.8,0.7-12.2-1-16.1-5.4c-3.9-4.4-4.8-11.6-1.1-16.1
							c0.7-0.8,1.5-1.7,1.6-2.8c0-0.6-0.2-1.2-0.4-1.7c-2.3-5.4-6-10.3-10.7-13.8c-0.4-0.3-0.9-0.6-1.4-0.5c-0.6,0.1-0.9,0.9-1,1.6
							c-0.6,3.3-0.5,6.7,0.2,10C936,310.5,927,288.5,941.2,297.2z"/>
						<path id="XMLID_417_" class="st40" d="M1040.7,169.5c-22.8-7.9-48.3-5.6-70.7,3.3c-8.7,3.5-17.4,8.2-22.6,16
							c-4.9,7.3-6.3,16.3-6.6,25.1c-0.8,23.6,5.2,46.9,8.4,70.3c3.4,24.6,3.8,49.5,1.2,74.2c-1,9.4-2.4,18.9-2,28.3
							s2.9,19.1,8.9,26.5c6.7,8.2,17.2,12.7,27.7,13.9c10.5,1.3,21.2-0.4,31.5-2.7c17.4-3.8,34.9-9.7,48.9-20.7
							c22.7-17.8,33.1-47.8,36-75.6C1107.1,274.8,1101,190.5,1040.7,169.5z"/>
						<g id="XMLID_408_">
							<path id="XMLID_409_" class="st25" d="M1088.8,293c-13.1-3.7-16.1-23.8-15.7-34.5c-41.7-6.1-81.2-26.3-110.6-56.5
								c3.9,27.2-1,56.1-13.5,80.7c-3.3-23-9-45.8-8.3-69c0.3-8.8,1.6-17.8,6.6-25.1c5.3-7.8,13.9-12.5,22.6-16
								c22.4-8.9,48-11.2,70.7-3.3c60.3,21,66.4,105.3,60.7,158.6c-0.9,8.9-2.7,18-5.3,26.9C1095.8,334.8,1092.7,314.5,1088.8,293z"
								/>
						</g>
						<path id="XMLID_405_" class="st40" d="M1098.4,267c1.3-2.1,2.9-4.2,5.2-5c11.5-4,12.7,16.8,12.3,23
							c-0.7,11.8-1.7,23.7-5.2,34.9c-3.9,12.3-12,27.8-25.7,30.9c-0.9,0.2-2.1,0.3-2.8-0.3c-0.6-0.5-0.7-1.3-0.8-2.1
							C1077.2,319.8,1082.8,291.5,1098.4,267z"/>
						<path id="XMLID_402_" class="st41" d="M1102.4,280.1c-1.7,1.6-2.9,3.7-3.9,5.8c-3.4,7.2-6,14.7-7.8,22.5
							c2.6,3.9,4.8,9.1,2.3,13.1c-1.8,2.8-5.6,4.3-6.5,7.6c5.9-0.4,11.8-3.2,14.9-8.1c3.1-5,2.6-12.3-1.8-16.1
							c-0.8-0.7-1.8-1.4-2.1-2.4c-0.1-0.6,0-1.2,0.1-1.7c1.2-5.8,4.1-11.2,8-15.5c0.3-0.4,0.7-0.8,1.2-0.7c0.7,0,1,0.7,1.3,1.4
							c1.2,3.2,1.7,6.5,1.6,9.9C1109.9,292.2,1114.8,269,1102.4,280.1z"/>
						<path id="XMLID_399_" class="st42" d="M1016.9,252.4c6.2-4.8,15.2-4.3,22.3-0.9c7.1,3.4,12.6,9.2,17.9,15
							C1046,257.2,1031.3,252.2,1016.9,252.4z"/>
						<path id="XMLID_396_" class="st42" d="M960.4,263.9c4-6.6,5.4-11.6,13.2-15.2c6.6-3,15.4-3.8,21.4,1.1
							c-2.7-2.2-16.2,1.8-19.3,2.9C969.9,254.8,963.6,258.6,960.4,263.9z"/>
						
							<ellipse id="XMLID_393_" transform="matrix(-0.996 8.986079e-002 -8.986079e-002 -0.996 2085.5737 490.7824)" class="st42" cx="1031.7" cy="292.3" rx="4.6" ry="12.6"/>
						
							<ellipse id="XMLID_390_" transform="matrix(-0.996 8.986079e-002 -8.986079e-002 -0.996 2000.4073 499.162)" class="st42" cx="989" cy="294.6" rx="4" ry="11"/>
						
							<linearGradient id="XMLID_732_" gradientUnits="userSpaceOnUse" x1="1910.0836" y1="293.1747" x2="1972.5763" y2="306.6136" gradientTransform="matrix(-0.996 8.986079e-002 8.986079e-002 0.996 2896.3809 -156.264)">
							<stop  offset="0" style="stop-color:#F7A484"/>
							<stop  offset="1" style="stop-color:#F56889"/>
						</linearGradient>
						<path id="XMLID_389_" class="st80" d="M980.9,309.2c-5.8,0.7-12.1,0.8-16.7,4.3c-4.8,3.6-6.6,10.8-4,16.2
							c2.5,5.5,8.6,8.6,14.6,9.1s12-1.1,17.7-3c6.4-2.1,12.7-4.7,18.1-8.7s9.7-9.9,10.7-16.5c1.1-6.7-1.7-14.1-7.5-17.5
							c-7.3-4.3-11.1,0.4-14.3,6C995.8,305.8,988.2,308.3,980.9,309.2z"/>
						<path id="XMLID_388_" class="st7" d="M999.5,299.2c0,0-0.2,0.2-0.5,0.7c-0.3,0.5-0.8,1.1-1.5,1.9c-0.7,0.8-1.6,1.6-2.8,2.4
							c-1.2,0.8-2.6,1.6-4.2,2.3c-1.6,0.7-3.4,1.2-5.4,1.6c-2,0.4-4.1,0.7-6.3,0.9c-2.2,0.2-4.5,0.4-6.8,0.9
							c-2.3,0.4-4.7,1.1-6.8,2.3c-0.5,0.3-1,0.6-1.5,1c-0.5,0.4-0.9,0.7-1.3,1.2c-0.9,0.9-1.6,1.9-2.2,2.9c-1.2,2.1-1.7,4.5-1.8,6.7
							c0,2.3,0.5,4.5,1.5,6.3c1,1.8,2.3,3.3,3.7,4.4c2.8,2.3,5.8,3.2,7.8,3.6c1,0.2,1.8,0.3,2.4,0.4c0.6,0,0.8,0.1,0.8,0.1
							s-0.3,0-0.8-0.1c-0.5-0.1-1.3-0.2-2.3-0.5c-2-0.5-4.8-1.6-7.5-3.9c-1.3-1.1-2.6-2.6-3.4-4.4c-0.9-1.8-1.3-3.8-1.3-6
							c0.1-2.1,0.6-4.4,1.7-6.3c0.5-1,1.2-1.9,2-2.7c0.4-0.4,0.8-0.8,1.3-1.1c0.4-0.3,0.9-0.7,1.4-0.9c2-1.2,4.2-1.8,6.5-2.3
							c2.3-0.4,4.5-0.7,6.7-0.9c2.2-0.2,4.3-0.6,6.3-1.1c2-0.5,3.8-1.1,5.5-1.8c1.6-0.7,3-1.6,4.2-2.5c1.1-0.9,2-1.8,2.7-2.6
							c0.7-0.8,1.1-1.5,1.4-2C999.4,299.4,999.5,299.2,999.5,299.2z"/>
						<path id="XMLID_385_" class="st46" d="M1034.1,341.3c4.4-1.3,8.8-2.8,13.3-2.8c4.6,0,9.4,1.9,11.6,5.9c2.7,4.9,0.7,11-2,15.8
							c-3.4,5.9-8,11.2-13.9,14.6c-6.6,3.8-14.4,4.9-22,5.6c-10.4,1-21.2,1.3-30.9-2.6c-1.8-0.7-3.6-1.7-4.7-3.3
							c-1-1.6-1-3.5-1.1-5.3c-0.1-4.3-4.2-20.3-4.2-20.3s13.3-0.3,17.5-0.7C1010,347.2,1022.2,344.8,1034.1,341.3z"/>
						<g id="XMLID_378_">
							<path id="XMLID_382_" class="st7" d="M982.5,358.5c-1.1-4.9-2.3-9.5-2.3-9.5s13.3-0.3,17.5-0.7c12.4-1,24.5-3.5,36.4-7
								c4.4-1.3,8.8-2.8,13.3-2.8c2.7,0,5.4,0.7,7.7,2c-0.3,2.4-0.8,4.9-1.7,7.2C1030.8,354.7,1006.4,358.4,982.5,358.5z"/>
							<path id="XMLID_379_" class="st27" d="M1058.1,358.1c-0.3,0.7-0.7,1.4-1.1,2.1c-3.4,5.9-8,11.2-13.9,14.6
								c-6.6,3.8-14.4,4.9-22,5.6c-5,0.5-10.1,0.8-15.2,0.6C1016.8,364.1,1038.7,358.6,1058.1,358.1z"/>
						</g>
						<path id="XMLID_375_" class="st56" d="M1068.2,200c1.4,3.7,2.8,7.4,4.3,11.1c-3.3-2-6.6-4.1-10-6.1c-0.7,1.3-0.9,2.9-0.4,4.3
							c-9.9,2.3-19.9,4-30,5c1.8,1.8,0,5.2-2.6,5.8s-5-0.8-7.3-2.1c-1.2-0.7-2.4-1.4-3.6-2c-1.8-1-3.8-2-5.7-1.4
							c-1.9,0.6-2.6,3.9-0.7,4.5c-7.6-1.3-15-3.4-22.2-6.3c5.5,9.3,13.8,17,23.6,21.8c-1.1-2.2-2.2-4.3-3.3-6.5
							c4.6,2.6,9.6,4.5,14.7,5.8c-1.1-2.5-2.2-5-3.3-7.5c5.9,1.3,11.9,2.7,17.8,4c0.5-2,0.5-4.1,0.1-6.1c9.4-0.3,18.7-0.5,28.1-0.8
							c-0.1-1.9-0.2-3.9-0.2-5.8c5.1,1.1,9.9,3.6,13.7,7.3c-0.3-1.8-0.5-3.6-0.8-5.4c2,4.1,3.5,8.4,4.5,12.8
							c-0.4-5.9,0.5-11.2-2.1-16.5C1079.8,209.8,1073.4,204.2,1068.2,200z"/>
						<path id="XMLID_372_" class="st56" d="M956.6,236.1c-0.4-3.5-0.8-7-1.2-10.5c0,1.6-1.2,3.2-2.7,3.7s-3.4-0.1-4.4-1.4
							c-0.1,3.4-0.6,6.8-1.4,10.1c-3.1-7.3-4-15.6-2.7-23.4c1.2,3.1,2.3,6.3,3.5,9.4c-0.3-1.1,0.4-2.5,1.5-2.9
							c0.9-0.3,1.9-0.2,2.7-0.4c2.3-0.7,2.6-3.8,2.5-6.2c0.1,2.4,2.2,6,3.1,8.2c0-1.4,0.9-3.1,1.1-4.5
							C962.5,221.7,958.3,231.7,956.6,236.1z"/>
						<path id="XMLID_371_" class="st7" d="M1032.4,285.7c0-0.7,1.1-0.8,1.4-0.3c0.9,1.3,1.5,2.6,1.3,4.3c-0.2,1.7-2.8,1.5-3-0.1
							C1032,288.2,1032.3,286.9,1032.4,285.7z"/>
						<path id="XMLID_370_" class="st7" d="M988.5,289.6c0-1.5,2-1.6,2.2-0.2c0.2,1.2,0.5,2.4,0.4,3.6c-0.1,1.2-2,1.4-2.4,0.2
							C988.4,292,988.5,290.7,988.5,289.6z"/>
					</g>
					<path id="XMLID_107_" class="st40" d="M1014.3,535.4c-8.9,37.3-15.2,63.9-20.6,101.8c-3.3,22.7-5,47.2,6,67.4
						c5.1,9.4,12.6,17.2,20,24.9c6.6-16.6,5.1-35.2,3.5-53c-1.4-15.5-2.9-31-4.3-46.4c3.5-42.4,5.1-58.7,6.3-93.6L1014.3,535.4z"/>
				</g>
			</g>
		</g>
	</g>
</g>
</svg>
